<?xml version="1.0" encoding="utf-8"?>
<!-- Generator: Adobe Illustrator 27.5.0, SVG Export Plug-In . SVG Version: 6.00 Build 0)  -->
<svg version="1.1" id="_x3C_Layer_x3E_" xmlns="http://www.w3.org/2000/svg" xmlns:xlink="http://www.w3.org/1999/xlink" x="0px"
	 y="0px" viewBox="0 0 2848 1780" style="enable-background:new 0 0 2848 1780;" xml:space="preserve">
<rect style="fill:#FFFFFF;" width="2848" height="1780"/>
<g>
	<path style="fill:#FCECDB;" d="M264.14,1574.164c0,0-311.581-334.538-52.693-696.724
		C441.149,556.084,708.96,578.052,905.447,708.459c83.686,55.543,324.966,6.846,530.323-320.146
		c280.053-445.927,1250.817-175.471,1073.816,510.6c-85.655,332.009,260.685,344.078,84.211,675.954L264.14,1574.164z"/>
	<path style="fill:#82B378;" d="M2516.314,1570.428h-98.72c-5.29-4.487,3.661-14.678,13.013-15.363
		c4.063-0.308,9.199,0.543,15.068,1.783c1.358-18.044,9.116-99.157,38.354-95.898c32.875,3.649,0,35.722-9.293,54.709
		c-6.886,14.064-14.147,34.234-17.466,43.752c2.67,0.578,5.433,1.145,8.254,1.664c4.358-13.378,20.571-58.381,41.189-55.759
		c24.207,3.069,14.477,21.112-2.681,31.823c-12.589,7.876-28.046,19.07-35.391,24.479c6.224,1.016,12.718,1.7,19.308,1.547
		C2504.86,1562.764,2513.115,1567.747,2516.314,1570.428z"/>
	<path style="fill:#82B378;" d="M364.371,1566.912c-3.921-6.159-15.72-22.145-31.436-20.028
		c-17.123,2.305,18.912,13.595,29.944,20.075c-2.45,0.033-4.557-0.163-6.103-0.714c-7.376-2.629-20.008,2.413-24.046,4.183h70.217
		c-0.485-1.68-1.751-4.423-5.021-6.422c-1.153-0.704-3.471-0.803-6.463-0.575c4.176-4.922,7.075-20.645-4.548-16.599
		c-8.491,2.955-8.468,12.562-7.634,18.246c-1.807,0.283-3.639,0.569-5.448,0.829c-3.496-17.816-15.861-70.034-40.924-71.426
		c-25.406-1.412,21.546,54.153,37.179,71.925C368.085,1566.646,366.156,1566.828,364.371,1566.912z"/>
	<g>
		<polygon style="fill:#FFB27D;" points="2151.841,1448.897 2144.207,1481.015 2134.074,1523.607 2102.416,1523.607 
			2100.531,1482.806 2099.072,1451.334 		"/>
		<path style="fill:#BC3F3F;" d="M2252.161,749.819c0,0,25.048-26.804,41.336-5.785c16.288,21.018,34.34,35.206,59.333,51.37
			c24.992,16.164-22.086,142.869-53.394,140.265C2268.129,933.065,2140.386,833.173,2252.161,749.819z"/>
		<path style="fill:#4A75CB;" d="M2127.43,737.074c6.252-4.674,63.826-24.439,119.959-5c56.132,19.44-43.479,73.592-43.479,73.592
			l-32.283,1.39L2127.43,737.074z"/>
		<path style="fill:#233862;" d="M2089.897,1570.397c0,0,0-15.5,2.209-20.653s10.308-26.137,10.308-26.137h31.659
			c0,0,5.89,19.143,6.259,25.401c0.367,6.258,0,21.389,0,21.389H2089.897z"/>
		<path style="fill:#233862;" d="M2290.911,1570.397c0,0,0-15.5-2.208-20.653c-2.21-5.153-10.309-26.137-10.309-26.137h-31.659
			c0,0-5.89,19.143-6.258,25.401c-0.368,6.258,0,21.389,0,21.389H2290.911z"/>
		<path style="fill:#FFB27D;" d="M2164.076,700.466c0,0-1.115,34.513-5.533,49.974l-34.961,75.36l131.606-31.276l-31.387-43.366
			c0,0-9.477-46.273-4.507-63.393C2224.265,670.648,2164.076,700.466,2164.076,700.466z"/>
		<path style="fill:#ED985F;" d="M2163.885,705.231c0.001-0.011,10.406,25.053,30.01,24.501c19.604-0.553,24.064-22.72,24.064-22.72
			L2163.885,705.231z"/>
		<path style="fill:#2C3A64;" d="M2152.185,684.947c0,0-6.331-31.603-10.749-41.174c-4.417-9.572-8.099-52.274,40.862-54.484
			c0,0,18.774,2.21,29.083-4.048c0,0,0,6.258-2.577,8.466c0,0,16.935-4.049,30.187,10.676c13.253,14.726-8.833,66.266-7.729,78.412
			L2152.185,684.947z"/>
		<path style="fill:#FFB27D;" d="M2191.648,720.052c-14.204-0.251-40.348-19.165-40.348-42.586v-36.55
			c0-8.552,5.964-15.55,13.252-15.55h54.19c7.289,0,13.253,6.998,13.253,15.55v34.48
			C2231.996,699.957,2207.938,720.339,2191.648,720.052z"/>
		<path style="fill:#2C3A64;" d="M2151.301,660.432c0,0,0.074-21.961,17.469-25.338c17.394-3.376,56.324,10.704,61.846-5.31
			c5.521-16.014-75.247-15.737-79.314-5.522C2147.233,634.477,2151.301,660.432,2151.301,660.432z"/>
		<path style="fill:#2B478B;" d="M2211.949,1041.015c8.713-27.12,8.539,112.259-26.438,269.034
			c-5.338,23.927-17.29,81.624-25.871,137.464h-71.659c-0.989-45.093-5.822-108.037-8.866-155.185
			c-9.545-147.784,14.75-258.687,14.75-258.687L2211.949,1041.015z"/>
		<path style="fill:#2B478B;" d="M2303.904,1292.324c-0.791,45.186-9.966,105.212-10.799,149.211h-72.699
			c-4.885-31.939-12.643-64.827-18.215-91.361c-3.967-18.839-6.831-34.471-6.789-44.291c0.083-19.192-12.061-74.532-19.287-123.332
			c-0.011-0.072-0.021-0.136-0.031-0.198c-0.281-1.874-0.552-3.748-0.813-5.603c-9.685-68.597-6.269-135.735-6.269-135.735
			l122.665-7.665C2291.668,1033.35,2306.008,1171.813,2303.904,1292.324z"/>
		<path style="fill:#233862;" d="M2084.149,1090.481c0,0,27.597,33.438,102.578,28.612c74.979-4.828,110.752-17.876,110.752-17.876
			L2084.149,1090.481z"/>
		<path style="fill:#739AF0;" d="M2297.479,1101.218c-24.493,3.332-191.116,11.986-213.33-10.736
			c-22.212-22.734,36.262-332.778,36.262-332.778s6.623-1.916,17.798-4.02c5.695-1.072,12.569-2.188,20.349-3.124
			c0.094,2.416,2.021,38.969,32.366,54.069c0,0,36.449-14.601,32.877-53.476c-0.042-0.458-0.094-0.896-0.156-1.334
			c4.863,0.522,9.789,1.198,14.736,2.052c9.997,1.719,20.119,4.146,30.158,7.468
			C2268.539,759.339,2321.974,1097.896,2297.479,1101.218z"/>
		<path style="fill:#739AF0;" d="M2085.555,941.148c-0.986,1.289,5.655,10.829,15.027,23.099
			c19.279,25.198,50.119,61.872,50.119,61.872c-0.413,12.431-2.15,20.451-2.15,20.451c-42.362-20.018-71.004-38.739-89.991-53.775
			c-26.692-21.148-34.347-35.022-34.347-35.022c42.802-181.057,97.715-199.909,97.715-199.909l17.919,109.103
			C2139.847,866.966,2088.555,937.223,2085.555,941.148z"/>
		<path style="fill:#EE9849;" d="M2238.381,751.871l-11.039,33.575l-14.715,21.609l-21.12,11.455l-19.88-11.455l-33.418-53.372
			c5.695-1.072,12.569-2.188,20.349-3.124c0.094,2.416,2.021,38.969,32.366,54.069c0,0,36.449-14.601,32.877-53.476
			c-0.042-0.458-0.094-0.896-0.156-1.334C2228.508,750.341,2233.434,751.018,2238.381,751.871z"/>
		<path style="fill:#FFB27D;" d="M2150.705,1026.123c-0.01,0.354-0.02,0.698-0.041,1.041c-0.094,2.291-0.229,4.437-0.396,6.384
			c-1.063,1.468-2.238,2.854-3.52,4.146c-1.947,1.968-4.051,3.623-6.196,5.019c-1.072-0.51-2.146-1.041-3.196-1.562
			c-36.283-17.964-61.526-34.679-78.793-48.352c10.955-3.374,26.306-11.081,42.02-28.556
			C2119.859,989.445,2150.705,1026.123,2150.705,1026.123z"/>
		<path style="fill:#739AF0;" d="M2361.085,951.116c0,0-7.388,14.018-33.671,35.673c-18.695,15.396-46.975,34.663-88.945,55.488
			c0,0-1.891-7.986-2.541-20.407c0,0,30.131-37.257,48.926-62.818c9.135-12.447,15.593-22.112,14.583-23.383
			c-2.387-3.002-34.538-45.291-48.886-64.152c-4.16-5.479-6.815-8.977-6.815-8.977l18.159-107.268
			C2261.895,755.271,2314.826,770.912,2361.085,951.116z"/>
		<path style="fill:#FFB27D;" d="M2327.409,986.789c-17.058,14.039-42.094,31.305-78.22,50.05c-0.895,0.458-1.801,0.927-2.717,1.396
			c-4.614-5.572-7.415-12.205-9.124-18.121c0.604-0.749,1.386-1.738,2.343-2.916c8.655-10.799,30.399-38.082,45.156-58.151
			C2300.885,976.219,2316.391,983.624,2327.409,986.789z"/>
		<path style="fill:#FFB27D;" d="M2223.645,749.819c-24.306-2.602-47.113-1.416-65.087,0.74c-0.011-0.084-0.011-0.125-0.011-0.125
			S2218.792,713.174,2223.645,749.819z"/>
		<g>
			<g>
				<polygon style="fill:#BBD4FF;" points="2163.225,855.198 2161.987,855.198 2161.076,797.127 2164.2,797.127 				"/>
			</g>
			<path style="fill:#EE9849;" d="M2161.862,853.69c-1.126,1.698-3.657,7.313-1.977,7.905c1.68,0.594,4.629,0.628,5.42-0.162
				C2166.096,860.643,2163.989,850.482,2161.862,853.69z"/>
		</g>
		<g>
			<g>
				<polygon style="fill:#BBD4FF;" points="2220.253,855.198 2219.017,855.198 2218.105,797.127 2221.229,797.127 				"/>
			</g>
			<path style="fill:#EE9849;" d="M2218.892,853.69c-1.126,1.698-3.657,7.313-1.977,7.905c1.68,0.594,4.628,0.628,5.419-0.162
				C2223.124,860.643,2221.018,850.482,2218.892,853.69z"/>
		</g>
		<path style="fill:#4A75CB;" d="M2171.627,807.056l-51.213-49.353c0,0-11.531-8.185,6.693-20.422
			C2145.332,725.046,2171.627,807.056,2171.627,807.056z"/>
		<path style="fill:#4A75CB;" d="M2212.624,807.056l51.214-49.353c0,0,11.53-8.185-6.693-20.422
			C2238.919,725.046,2212.624,807.056,2212.624,807.056z"/>
		<g>
			<path style="fill:#678FE5;" d="M2276.901,1047.315c-9.977,0.844-18.297-1.656-24.723-7.394c-1.083-0.97-2.073-2-2.989-3.083
				c-5.061-5.915-7.903-13.361-9.498-19.642c-1.832-7.174-2.029-12.818-2.029-12.934l-0.042-1.447h-82.718l0.052,1.542
				c0.322,8.893-1.114,16.526-4.29,22.806c-1.573,3.145-3.582,5.947-6.02,8.404c-2.25,2.27-4.738,4.103-7.289,5.582
				c-11.07,6.414-23.391,6.165-23.547,6.165l-1.531-0.052v34.948h166.238v-35.032L2276.901,1047.315z"/>
		</g>
		<path style="fill:#678FE5;" d="M2299.437,935.669c0,0-46.111-60.504-9.61-78.119c14.489-6.993,34.886,76.035,23.951,83.845
			c-10.935,7.812-28.93,17.651-28.93,17.651L2299.437,935.669z"/>
		<path style="fill:#678FE5;" d="M2090.862,925.693c0,0,16.021-75.968,1.962-68.144c-14.059,7.823-34.887,76.035-23.951,83.845
			c10.935,7.812,28.93,17.651,28.93,17.651L2090.862,925.693z"/>
		<g>
			<path style="fill:#BC3F3F;" d="M2292.971,935.492c-21.057-26.139-28.922-68.584-27.848-112.384
				c0.807-32.89,5.315-62.57,5.609-63.61l17.27,13.451c-0.068,0.247-9.911,18.242-10.674,50.247
				c-0.696,29.268-2.082,51.55,14.46,102.497L2292.971,935.492z"/>
		</g>
		<path style="fill:#233862;" d="M2133.096,1463.675l-37.101-0.021c-3.283,0.369-8.423-4.439-8.423-11.313
			c0,0-0.077-16.479-1.166-19.409c-4.772-12.843,2.325-13.537,9.199-13.537h67.69c6.874,0-3.655,21.244-3.655,28.117l2.438,9.01
			C2162.078,1463.396,2139.969,1463.675,2133.096,1463.675z"/>
		<path style="fill:#233862;" d="M2144.207,1481.015l-10.133,42.593h-31.658l-1.885-40.802
			C2105.248,1484.535,2121.13,1488.961,2144.207,1481.015z"/>
		<polygon style="fill:#FFB27D;" points="2229.029,1448.897 2236.663,1480.531 2246.795,1522.483 2278.454,1522.483 
			2280.338,1482.296 2281.797,1451.298 		"/>
		<path style="fill:#233862;" d="M2247.774,1463.675l37.1-0.021c3.284,0.369,8.423-4.439,8.423-11.313
			c0,0,0.078-16.479,1.166-19.409c4.773-12.843-2.325-13.537-9.198-13.537h-67.69c-6.873,0,3.655,21.244,3.655,28.117l-2.438,9.01
			C2218.792,1463.396,2240.9,1463.675,2247.774,1463.675z"/>
		<path style="fill:#233862;" d="M2236.663,1481.015l10.132,42.593h31.659l1.884-40.802
			C2275.621,1484.535,2259.739,1488.961,2236.663,1481.015z"/>
	</g>
	<g>
		<path style="fill:#2C3A64;" d="M662.452,619.866c-2.494-2.711-8.064-5.783-15.399-8.288c12.884-5.796,23.847-12.627,16.266-16.802
			c-3.277-1.806-7.192-1.552-11.316-0.052c6.346-6.418,9.399-11.943,3.214-13.392c-9.4-2.199-19.186,9.914-26.017,21.082
			c4.431-9.578,6.715-19.07-1.546-19.212c-9.521-0.163-11.381,12.474-11.216,23.397c-0.789,0.004-1.578,0.018-2.369,0.046
			c-2.684-12.083-7.887-27.112-16.76-23.099c-4.466,2.021-4.307,6.355-1.967,11.367c-4.195-3.219-8.347-4.332-11.645-0.924
			c-5.024,5.198,1.154,11.363,9.319,16.519c-5.783,2.1-11.25,5.14-16.077,9.356c-27.724,24.209,2.504,79.033,2.504,79.033
			l79.149-2.028C683.393,657.391,671.432,629.628,662.452,619.866z"/>
		<path style="fill:#2B478B;" d="M581.725,997.227l-47.27,5.958c-31.082,3.918-59.176-14-62.431-39.817L454.043,820.71
			c-3.256-25.817,10.35-46.167,41.601-47.449c18.519-0.76,49.423-4.84,82.666-15.902c29.476-9.809,32.775,17.328,36.029,43.146
			l17.982,142.657C635.576,968.979,612.808,993.309,581.725,997.227z"/>
		<path style="fill:#233862;" d="M519.216,1574.727c0,0,0-15.202,2.167-20.258c2.167-5.056,10.11-25.637,10.11-25.637h31.053
			c0,0,5.776,18.776,6.138,24.915c0.362,6.138,0,20.979,0,20.979H519.216z"/>
		<path style="fill:#233862;" d="M716.38,1574.727c0,0,0-15.202-2.167-20.258c-2.166-5.056-10.11-25.637-10.11-25.637h-31.052
			c0,0-5.778,18.776-6.14,24.915c-0.36,6.138,0,20.979,0,20.979H716.38z"/>
		<path style="fill:#B56F40;" d="M591.974,721.458c0,0-1.094,33.852-5.427,49.017l-34.291,23.922l129.084,19.317l-30.784-42.535
			c0,0-9.295-45.388-4.42-62.177C651.011,692.211,591.974,721.458,591.974,721.458z"/>
		<path style="fill:#99592E;" d="M591.785,726.133c0.001-0.01,10.209,24.573,29.436,24.031
			c19.228-0.541,23.603-22.284,23.603-22.284L591.785,726.133z"/>
		<path style="fill:#B56F40;" d="M619.018,740.67c-13.933-0.247-39.574-18.797-39.574-41.771v-35.85
			c0-8.388,5.85-15.251,12.998-15.251h53.152c7.15,0,12.999,6.863,12.999,15.251v33.821
			C658.593,720.96,634.996,740.951,619.018,740.67z"/>
		<path style="fill:#EE9849;" d="M523.107,1048.25c0,0,5.435,165.904-2.69,260.565c-8.123,94.66,0.06,226.398,0.06,226.398
			s25.981,14.325,54.146,0c0,0,30.888-182.876,30.691-226.398c-0.207-46.351,33.62-253.333,33.62-253.333L523.107,1048.25z"/>
		<path style="fill:#EE9849;" d="M715.258,1535.209c0,0-25.977,14.331-54.141,0c0,0-30.884-182.872-30.689-226.397
			c0.087-19.573-5.893-67.81-12.837-116.989c-9.499-67.279-20.787-136.336-20.787-136.336l120.315-7.519
			c0,0-9.923,166.19-1.798,260.844C723.446,1403.477,715.258,1535.209,715.258,1535.209z"/>
		<path style="fill:#74ACBE;" d="M694.438,779.205l0.002,0.073c-15.618-3.932-30.306-6.52-43.884-8.1
			c-11.98,15.913-20.582,19.607-31.534,23.94c-17.624-2.437-32.475-24.146-32.475-24.644c-25.586,2.622-40.069,8.006-40.069,8.006
			c-9.738,4.083-22.521,80.159-24.514,122.417c-0.249,5.308-0.335,10.074-0.217,14.103c1.04,36.245,2.503,71.472-2.166,110.49
			c-6.143,51.27,4.257,50.359,4.257,50.359s13.995,2.741,33.516,5.33c17.656,2.361,39.83,4.604,60.238,4.604
			c46.797,0,98.088-9.934,98.088-9.934c14.765,0.185-4.139-91.87-6.9-147.256c-0.64-12.862-1.236-24.605-1.793-35.335
			c17.732,15.277,69.914,43.117,71.101,46.672c0,0-11.387,20.784-14.846,31.863c-13.284,42.539-36.13,70.663-36.13,70.663
			c3.108,11.797,2.238,17.025,2.238,17.025c36.138-28.393,59.438-52.548,74.31-71.071c20.907-26.052,25.196-40.99,25.196-40.99
			C748.393,783.637,694.438,779.205,694.438,779.205z"/>
		<path style="fill:#578E9B;" d="M557.353,1081.181c-19.52-2.589-33.516-5.33-33.516-5.33s-10.399,0.91-4.257-50.359
			c4.669-39.018,3.206-74.245,2.166-110.49c-0.118-4.029-0.032-8.796,0.217-14.103c2.99,4.787,36.31,58.602,45.279,98.596
			C573.775,1028.665,563.928,1063.025,557.353,1081.181z"/>
		<path style="fill:#E58638;" d="M630.429,1308.812c0.087-19.573-5.893-67.81-12.837-116.989
			c7.204-29.377,24.753-57.649,24.753-57.649C664.55,1196.459,630.429,1308.812,630.429,1308.812z"/>
		<path style="fill:#B56F40;" d="M727.111,1042.458c0,0-19.499-18.054-27.442-7.943c-7.944,10.109-9.389,25.998-3.249,24.914
			c6.138-1.083,18.775-6.86,20.581-3.972c1.806,2.889,9.894,8.41,12.349,4.024C731.805,1055.096,727.111,1042.458,727.111,1042.458z
			"/>
		<path style="fill:#B56F40;" d="M727.111,1042.458c3.108,11.797,2.235,17.025,2.235,17.025
			c36.137-28.393,59.437-52.548,74.31-71.071c-11.212-0.835-21.578-3.337-40.415-16.617
			C747.688,1019.239,727.111,1042.458,727.111,1042.458z"/>
		<path style="fill:#578E9B;" d="M773.582,936.264c-2.893-2.405-49.236-27.925-66.785-43.166c0,0,17.516-13.129,28.349,6.012
			C745.977,918.25,773.582,936.264,773.582,936.264z"/>
		<path style="fill:#578E9B;" d="M828.856,947.422c0,0-4.289,14.939-25.196,40.99C779.461,988.075,828.856,947.422,828.856,947.422z
			"/>
		<path style="fill:#2C3A64;" d="M579.443,677.587c0,0,9.669-29.518,41.354-24.914c31.685,4.604,34.427,11.374,37.795,19.227
			c3.367,7.854,9.867-28.706,9.867-28.706l-37.372-11.103c0,0-45.225,5.146-48.475,12.728c-3.249,7.583-3.249,7.583-3.249,7.583
			L579.443,677.587z"/>
		<g>
			<path style="fill:#2B478B;" d="M522.269,992.07l0.543-25.16c35.856-27.226,50.442-59.494,51.824-115.304
				c1.047-42.32-13.17-76.831-13.27-77.176c0,0,6.344-1.52,8.503-1.894c2.331-0.403,9.463-1.218,9.463-1.218
				c0.434,1.479,9.881,35.882,8.847,80.242C586.793,911.025,561.1,962.586,522.269,992.07z"/>
		</g>
		<path style="fill:#74ACBE;" d="M621.679,984.79c-12.11,1.822-74.167,16.225-118.395,21.807
			c-24.931,3.145-44.197,3.499-45.685-2.781c-4.114-17.422,9.882-128.403,32.127-173.068c22.243-44.677,63.471-54.324,63.471-54.324
			l11.728,70.725l-59.619,118.74l14.518,0.26l99.629,1.771L621.679,984.79z"/>
		<g>
			<path style="fill:#233862;" d="M652.923,991.109h-22.428c-2.717,0-4.938-2.222-4.938-4.938v-40.57
				c0-2.716,2.222-4.938,4.938-4.938h22.428c2.715,0,4.938,2.223,4.938,4.938v40.57C657.86,988.888,655.638,991.109,652.923,991.109
				z"/>
			<path style="fill:#2B478B;" d="M652.923,995.171h-22.428c-2.717,0-4.938-2.222-4.938-4.938v-40.57
				c0-2.716,2.222-4.938,4.938-4.938h22.428c2.715,0,4.938,2.223,4.938,4.938v40.57C657.86,992.949,655.638,995.171,652.923,995.171
				z"/>
		</g>
		<path style="fill:#B56F40;" d="M607.801,971.818c0,0,32.776-22.586,43.524-14.743c10.749,7.841,11.604,26.536-32.96,28.083
			L607.801,971.818z"/>
		<path style="fill:#B56F40;" d="M621.679,984.79c-12.11,1.822-74.167,16.225-118.395,21.807c3.874-18.87,9.966-31.71,16.538-40.448
			l99.629,1.771L621.679,984.79z"/>
		<path style="fill:#2C3A64;" d="M653.748,680.813c-1.679-2.05-4.446-3.227-7.594-3.227h-15.955c-3.034,0-5.154,0.873-6.299,2.593
			c-0.533,0.8-0.799,1.712-0.898,2.646c-2.677-0.667-5.283-0.328-7.094,0.125c-0.088-0.979-0.356-1.936-0.91-2.771
			c-1.145-1.72-3.266-2.593-6.299-2.593h-15.956c-3.146,0-5.915,1.177-7.595,3.227c-1.523,1.861-2.038,4.288-1.486,7.02
			c1.816,9.017,12.2,10.17,17.388,10.17c1.601,0,2.707-0.11,2.914-0.133c4.855-0.011,8.274-2.781,10.757-8.715
			c0.424-1.013,1.1-2.916,1.209-4.9c1.724-0.46,4.374-0.875,7.032-0.144c0.083,2.036,0.781,4.008,1.215,5.045
			c2.484,5.934,5.903,8.704,10.758,8.715c0.206,0.022,1.312,0.133,2.914,0.133c5.187,0,15.571-1.153,17.388-10.17
			C655.787,685.102,655.272,682.675,653.748,680.813z M613.753,688.75c-2.304,5.507-5.424,8.071-9.818,8.071l-0.063,0.004
			c-0.044,0.005-4.342,0.505-8.852-0.414c-5.923-1.205-9.398-4.161-10.331-8.786c-0.486-2.412-0.047-4.536,1.271-6.148
			c1.479-1.806,3.951-2.841,6.782-2.841h15.956c2.661,0,4.486,0.715,5.424,2.125c0.484,0.727,0.698,1.592,0.752,2.483
			c-0.813,0.258-1.331,0.487-1.401,0.519c-0.315,0.144-0.454,0.517-0.31,0.832c0.106,0.23,0.334,0.366,0.572,0.366
			c0.087,0,0.175-0.018,0.261-0.057c0.013-0.006,0.33-0.146,0.854-0.325C614.678,686.366,614.048,688.047,613.753,688.75z
			 M654.208,687.626c-0.933,4.624-4.407,7.58-10.331,8.785c-4.511,0.918-8.808,0.419-8.852,0.414l-0.063-0.004
			c-4.394,0-7.513-2.565-9.818-8.071c-0.3-0.719-0.948-2.453-1.103-4.278c0.305,0.122,0.607,0.26,0.907,0.418
			c0.308,0.163,0.688,0.047,0.849-0.261c0.163-0.306,0.046-0.685-0.259-0.849c-0.499-0.264-1.003-0.467-1.508-0.645
			c0.064-0.852,0.279-1.678,0.744-2.374c0.939-1.41,2.763-2.125,5.425-2.125h15.955c2.832,0,5.304,1.035,6.782,2.841
			C654.254,683.089,654.694,685.213,654.208,687.626z"/>
		<path style="fill:#FFF0E6;" d="M606.271,717.495c0,0,17.53-1.909,25.688,0c0,0-4.34,7.116-11.456,7.116
			C613.387,724.611,608.006,722.007,606.271,717.495z"/>
	</g>
	<g>
		<g>
			<path style="fill:#163560;" d="M1411.233,662.376c-8.547-2.813-17.832-1.438-24.185,0.238c1.313-2.041,4.441-3.32,4.441-3.32
				c-4.105,0.211-12.205,5.958-12.205,5.958c-59.752-10.19-52.01,73.206-47.021,91.938c4.979,18.731-23.881,73.032-43.795,99.523
				c-55.877,74.332,33.468,151.737,33.468,151.737c72.433,60.832,39.518-57.128,39.518-57.128
				c-4.489-15.045,49.926-110.183,81.938-141.843c6.316-15.034,4.801-39.036,4.67-40.922c2.182,18.832,1.107,29.86-0.545,36.281
				C1472.964,769.787,1433.889,669.827,1411.233,662.376z"/>
			<path style="fill:#BC3F3F;" d="M1559.93,936.432c0,8.059-4.049,18.379-9.843,29.008c-14.407,26.493-39.597,54.896-39.597,54.896
				l-14.6-20.787c0,0,8.873-22.023,14.764-40.181c3.539-10.917,5.994-20.433,4.796-22.937c-3.194-6.676-66.407-81.456-66.407-81.456
				l-17.18-57.86c0,0,42.053,2.225,59.961,28.441C1509.732,851.78,1559.93,914.716,1559.93,936.432z"/>
			<path style="fill:#FFB27D;" d="M1550.087,965.44c-14.407,26.493-39.597,54.896-39.597,54.896l-14.6-20.787
				c0,0,8.873-22.023,14.764-40.181C1517.733,963.559,1529.992,967.55,1550.087,965.44z"/>
			<polygon style="fill:#FFB27D;" points="1375.354,1457.918 1390.481,1521.635 1413.142,1521.506 1413.973,1457.918 			"/>
			<polygon style="fill:#FFB27D;" points="1565.964,1460.635 1609.009,1521.635 1625.786,1500.094 1599.879,1452.247 			"/>
			<path style="fill:#FFB27D;" d="M1434.875,815.798c0.189,0.085-18.172,9.618-31.983,5.841c-12.99-3.543-21.479-20.387-21.3-20.425
				c5.502-1.092,7.088-8.652,6.972-41.14l2.487,0.49l41.818,8.28c0,0-0.951,13.161-0.98,25.559
				C1431.861,804.813,1432.492,814.687,1434.875,815.798z"/>
			<path style="fill:#5FABB7;" d="M1367.795,685.043c0,0,15.884-25.607,45.391-10.296
				C1413.186,674.747,1397.895,675.169,1367.795,685.043z"/>
			<path style="fill:#EF9E67;" d="M1432.869,768.845c0,0-0.951,13.161-0.98,25.559c-23.4-0.66-35.77-22.007-40.838-33.839
				L1432.869,768.845z"/>
			<path style="fill:#163560;" d="M1382.443,762.031c0,0-15.85-16.573-22.01-32.233c-4.396-11.181-7.154-55.353,37.285-57.869
				c0,0,12.795-1.292,26.192,4.296c10.654,4.443,26.944,15.389,19.372,55.946l-1.377,13.463L1382.443,762.031z"/>
			<path style="fill:#A53D38;" d="M1621.753,1486.158c0,0-11.115,1.918-20.24,2.613c-2.026,0.154-3.952,0.244-5.635,0.244
				c-4.395,0-12.309-1.654-17.626-2.894l-0.398-0.091c-2.333-0.552-4.114-1.004-4.775-1.176l-0.279-0.072
				c0,0-55.431-61.706-86.515-160.619c-0.723-2.306-1.491-4.63-2.296-6.981c-17.021-49.614-52.292-111.881-70.877-168.252
				c-2.958-8.971-5.616-17.427-7.995-25.422c-0.77-2.56-1.511-5.073-2.216-7.552c-13.701-47.598-17.662-78.845-21.316-112.234
				l111.755,28.434C1493.339,1032.156,1540.259,1235.563,1621.753,1486.158z"/>
			<path style="fill:#FFB27D;" d="M1440.188,775.459c0,0-54.094,11.835-60.946-21.966c-6.852-33.802-18.448-55.038,15.8-64.023
				s43.595,2.548,48.626,13.274C1448.698,713.469,1454.083,771.508,1440.188,775.459z"/>
			<path style="fill:#163560;" d="M1419.594,683.659c0,0-6.865,42.659-28.489,53.12c-21.624,10.462-32.748,6.346-32.748,6.346
				s14.692-17.423,13.433-42.412C1371.789,700.713,1404.579,667.04,1419.594,683.659z"/>
			<path style="fill:#163560;" d="M1416.561,687.621c0,0,12.882,6.619,17.323,14.683c4.441,8.065,9.23,25.541,14.274,23.898
				c0,0,5.762-29.218-9.895-41.932C1421.662,670.789,1416.561,687.621,1416.561,687.621z"/>
			<path style="fill:#FFB27D;" d="M1389.721,1518.074c0,0,1.824,12.62-2.885,26.123c0,0-3.71,16.897,12.934,17.212
				c16.643,0.313,20.726-1.257,18.841-11.619c-1.884-10.363-5.469-28.284-5.469-28.284L1389.721,1518.074z"/>
			<path style="fill:#C45446;" d="M1386.836,1544.197c0,0-3.692,17.751-1.809,26.23c0,0,5.634,1.972,17.725,1.972
				c11.463,0,18.202-1.972,18.202-1.972s-0.42-19.283-3.481-26.663C1417.473,1543.765,1405.677,1561.469,1386.836,1544.197z"/>
			<path style="fill:#FFB27D;" d="M1665.891,1551.482c0,0-30.685-34.058-40.104-51.389l-22.817,11.689l51.004,47.898l11.933-1.57
				L1665.891,1551.482z"/>
			<path style="fill:#C45446;" d="M1685.382,1571.444c0,0-32.973,0-38.625-0.631c-5.652-0.621-10.202-8.79-16.326-21.037
				c-2.506-5.011-8.13-7.771-13.896-9.288l0.109,29.939h-9.071l-7.995-31.721c-5.436-9.985-0.435-19.039,3.391-26.924
				c4.447-0.01,16.411,3.033,39.078,28.573c7.451,8.384,15.676,11.38,23.844,11.126c0.113,0.075,0.226,0.132,0.339,0.179
				C1685.071,1560.14,1685.382,1571.444,1685.382,1571.444z"/>
			<path style="fill:#912F2F;" d="M1601.513,1488.771c-2.026,0.154-3.952,0.244-5.635,0.244c-4.395,0-12.309-1.654-17.626-2.894
				l-0.398-0.091l-4.775-1.176l-0.279-0.072c0,0-55.431-61.706-86.515-160.619c-0.723-2.306-1.491-4.63-2.296-6.981
				c-17.021-49.614-52.292-111.881-70.877-168.252c-2.958-8.971-5.616-17.427-7.995-25.422c-0.77-2.56-1.511-5.073-2.216-7.552
				l19.761-15.004c0,0,59.347,96.092,77.714,186.521C1515.604,1362.43,1581.164,1459.605,1601.513,1488.771z"/>
			<path style="fill:#A53D38;" d="M1424.731,1295.902c0.336,43.972-1.89,145.073-7.614,186.937c0,0-5.432,4.805-18.901,4.861
				c-13.792,0.058-19.96-5.033-19.96-5.033c-14.371-72.775-24.59-132.99-32.033-184.884c-6.105-42.578-11.531-79.088-15.7-110.516
				c-3.699-27.846-6.412-51.713-7.715-72.287c-0.171-2.794-0.325-5.526-0.452-8.194c-0.162-3.526-0.289-6.954-0.353-10.273
				c-0.063-3.346-0.081-6.602-0.054-9.759l0.479-0.045l27.764-2.704l87.726-8.556
				C1436.453,1152.503,1424.542,1270.345,1424.731,1295.902z"/>
			<path style="fill:#912F2F;" d="M1398.216,1487.7c-11.733,0.679-19.96-5.033-19.96-5.033
				c-14.371-72.775-24.59-132.99-32.033-184.884c-6.105-42.578-11.531-79.088-15.7-110.516c-3.699-27.846-6.412-51.713-7.715-72.287
				c-0.153-10.139-0.262-19.852-0.379-28.271c-0.127-8.537-0.263-15.764-0.498-20.791l28.262,18.087l29.737,19.02
				c0,0-42.182,38.373-31.817,110.914C1358.469,1286.479,1383.791,1477.426,1398.216,1487.7z"/>
			<path style="fill:#BC3F3F;" d="M1508.769,1095.138c-33.652,8.745-190.69,26.011-192.047-13.321
				c-0.335-9.596,0-21.181,0.76-33.725c2.343-38.852,8.718-86.865,11.775-113.283c1.401-12.109-3.256-66.346,0.316-95.901
				c0.524-4.377,1.229-8.221,2.17-11.296c6.783-22.302,37.261-28.352,52.907-28.885l47.208-1.61c0,0,48.755,54.462,55.538,71.193
				s8.999,74.006,14.271,101.743C1506.941,997.79,1525.138,1090.888,1508.769,1095.138z"/>
			<path style="fill:#A53D38;" d="M1416.023,962.212c0,0-26.245,80.607-98.542,85.88c2.343-38.852,8.718-86.865,11.775-113.283
				c1.401-12.109-3.256-66.346,0.316-95.901c0.94,0.199,1.794,0.725,2.776,0.914C1411.96,855.196,1423.258,945.408,1416.023,962.212
				z"/>
			<g>
				
					<rect x="1389.201" y="876.039" transform="matrix(0.9944 0.1059 -0.1059 0.9944 107.6262 -146.3056)" style="fill:#2B478B;" width="84.315" height="128.331"/>
				<polygon style="fill:#163560;" points="1396.233,871.935 1390.854,871.509 1378.219,999.016 1382.643,999.545 				"/>
			</g>
			<g>
				<path style="fill:#FFB27D;" d="M1325.531,928.431c0,0,59.156,18.08,115.693,26.162c0,0,18.657,8.067,9.896,10.276
					c-2.244,0.566-115.462,25.252-132.25,9.235L1325.531,928.431z"/>
				<path style="fill:#BC3F3F;" d="M1384.65,798.727c0,0-31.101,0.17-44.384,15.322c-24.245,27.656-29.045,145.286-21.396,160.056
					c3.29,6.352,28.528,6.867,39.174-23.894C1363.566,934.257,1387.682,827.732,1384.65,798.727z"/>
			</g>
			<path style="fill:#FFB27D;" d="M1435.65,953.767c0,0,6.954-0.648,8.273-2.869c2.638-4.441,6.807-4.386,10.284-4.972
				c3.477-0.586,7.382-4.393,8.073-3.627c0.691,0.766-2.564,4.961-4.381,6.525c0,0,3.73,0.227,6.199-0.949
				c2.469-1.177,9.992-10.9,11.178-6.81c3.118,10.761-0.12,21.103-8.753,21.942c-9.312,0.905-32.42,5.365-32.42,5.365
				L1435.65,953.767z"/>
		</g>
	</g>
	<g>
		<g>
			<path style="fill:#D9935C;" d="M1726.307,1003.723c-44.188-11.245-92.762-79.798-92.762-79.798l12.442-10.792
				c12.882,15.186,66.441,41.343,66.441,41.343c-0.288-13.897,0.076-26.574,0.953-38.112
				c5.944-78.417,35.506-104.543,43.574-110.275c1.302-0.931,2.05-1.319,2.05-1.319s0.03,0.568,0.076,1.648
				c0.117,2.33,0.331,7.025,0.551,13.468C1761.271,867.881,1763.23,1013.129,1726.307,1003.723z"/>
			<path style="fill:#D9935C;" d="M1645.987,913.133c-0.187-1.853-1.432-28.793-6.784-33.922
				c-5.352-5.129-15.919-12.114-18.955-11.55c-3.035,0.566-13.35,17.72-8.48,29.535c4.869,11.815,21.777,26.729,21.777,26.729
				L1645.987,913.133z"/>
			<g>
				<path style="fill:#F1A34F;" d="M1656.967,916.266l-29.102,1.217c-0.966,0.04-1.781-0.71-1.821-1.676l-2.321-55.491
					c-0.04-0.967,0.71-1.782,1.676-1.821l29.102-1.218c0.966-0.041,1.781,0.71,1.821,1.675l2.321,55.492
					C1658.684,915.409,1657.933,916.225,1656.967,916.266z"/>
				<path style="fill:#D86713;" d="M1649.405,916.581l-26.397,1.104c-1.712,0.071-3.159-1.259-3.23-2.972l-2.208-52.787
					c-0.071-1.712,1.259-3.158,2.972-3.231l26.396-1.104c1.714-0.072,3.16,1.258,3.231,2.971l2.208,52.787
					C1652.448,915.063,1651.118,916.51,1649.405,916.581z"/>
			</g>
			<path style="fill:#D9935C;" d="M1618.04,869.721c0,0,7.933-8.857,15.867-2.089c7.935,6.769-0.526,21.223-7.409,25.174
				c-6.882,3.951-9.089,6.011-9.089,6.011L1618.04,869.721z"/>
		</g>
		<path style="fill:#CB7D45;" d="M1822.525,1459.635c-2.692,10.703-5.653,20.894-8.671,30.379c-0.647,2.033-1.284,4.034-1.932,5.988
			c-0.324,0.973-0.648,1.934-0.962,2.883c-0.637,1.877-1.262,3.721-1.888,5.52c-0.815,2.347-1.631,4.637-2.436,6.849
			c-0.592,1.643-1.185,3.252-1.766,4.826c-8.961,24.033-16.469,39.262-16.469,39.262l-17.854-1.229c0,0,6.704-31.888,8.044-77.562
			c0.045-1.631,0.09-3.274,0.123-4.938c0.067-3.542,0.111-7.15,0.111-10.837c0-1.509-0.01-3.04-0.021-4.582
			c-0.358-39.339-5.229-85.828-20.77-130.218c-12.638-36.088-21.799-69.852-28.424-100.364
			c-21.385-98.499-16.357-163.211-16.357-163.211l100.443,11.753l4.682,0.548c0.425,46.132,1.608,108.766,2.647,157.736
			c0.179,8.502,0.347,16.592,0.514,24.11c0.693,31.44,1.218,52.937,1.218,52.937
			C1842.077,1351.069,1835.061,1409.771,1822.525,1459.635z"/>
		<path style="fill:#233862;" d="M1793.77,717.534c0,0,23.762,20.232,1.975,43.521c0,0,18.156,1.781,24.301-3.246
			c0,0-1.21,2.451-2.328,3.554c0,0,20.298,0.729,28.677-5.602c8.38-6.332,2.996-110.183-53.341-98.572
			c0,0-47.752-3.605-43.303,51.647c4.448,55.252-13.58,55.253-13.58,55.253s5.015,2.473,7.435,2.473c0,0,3.538-1.351,4.236-3.307
			c0,0-0.698,3.073-1.605,4.05c0,0,19.461,1.844,29.179-5.502C1785.131,754.457,1796.543,728.933,1793.77,717.534z"/>
		<path style="fill:#D9935C;" d="M1870.452,1051.13c-18.981-42.57-28.063-54.608-28.381-68.003
			c-0.251-10.593,4.972-22.021,15.117-50.045c2.388-6.603,4.037-13.393,5.052-20.258c8.024-54.025-23.217-112.428-42.635-116.406
			c-5.402-1.428-14.561-20.941-14.447-52.384l-2.432,0.479l-40.887,8.097c0,0,0.931,12.867,0.958,24.988
			c0.027,10.102-0.519,20.38-2.807,21.585c-2.943,0.267-5.62,0.803-5.62,0.803s-34.602,24.301-36.836,57.26
			c-2.985,44.026,28.054,96.217,0.526,184.211C1689.956,1131.326,1880.939,1074.654,1870.452,1051.13z"/>
		<path style="fill:#CB7D45;" d="M1761.839,752.609c0,0,0.932,12.867,0.959,24.988c22.88-0.646,34.973-21.517,39.929-33.085
			L1761.839,752.609z"/>
		<path style="fill:#233862;" d="M1806.948,740.062c0,0,11.99-18.944,14.868-35.143c2.055-11.566-3.836-54.434-46.915-48.261
			c0,0-12.512,1.233-24.272,9.177c-9.354,6.316-22.853,19.954-7.759,57.363l3.92,12.637L1806.948,740.062z"/>
		<path style="fill:#D9935C;" d="M1754.198,764.088c0,0,54.133,0.893,54.171-32.828c0.036-33.719,7.049-56.313-27.512-58.309
			c-34.561-1.995-41.29,10.864-44.04,22.116C1734.067,706.318,1740.118,762.985,1754.198,764.088z"/>
		<path style="fill:#233862;" d="M1756.202,672.126c0,0,14.821,39.56,37.567,45.408c22.746,5.849,32.612-0.245,32.612-0.245
			s-17.447-13.86-21.068-38.054C1805.313,679.235,1767.383,653.297,1756.202,672.126z"/>
		<path style="fill:#233862;" d="M1759.876,675.337c0,0-11.068,8.831-13.768,17.419c-2.698,8.587-3.913,26.263-9.063,25.662
			c0,0-11.167-26.889,1.383-42.1C1751.733,660.19,1759.876,675.337,1759.876,675.337z"/>
		<path style="fill:#D9935C;" d="M1940.854,1096.348l-16.251,4.874c0,0-53.609-88.946-58.483-112.091
			c-1.59-7.535-5.488-22.613-10.036-39.506c-9.414-34.985-21.563-77.794-21.563-77.794l-4-17.33l-13.646-59.097
			c0,0,26.13,2.669,41.413,9.06c5.061,2.111,8.921,4.632,10.27,7.591c11.228,24.686,22.437,86.993,30.316,131.439
			c4.39,24.771,7.739,43.999,9.487,48.073C1913.236,1002.935,1928.129,1065.482,1940.854,1096.348z"/>
		<path style="fill:#233862;" d="M1757.819,676.673c0,0,10.561,41.427,39.26,54.694c0,0-28.699-25.451-31.137-52.798
			C1763.506,651.223,1757.819,676.673,1757.819,676.673z"/>
		<path style="fill:#D9935C;" d="M1880.143,1450.986c-5.775,61.63-31.205,101.494-31.205,101.494l-8.681,7.898
			c0,0-7.91-45.126-13.62-96.789c-5.441-49.104-12.903-101.067-21.34-116.934c-12.613-23.697-21.91-72.165-28.603-123.369
			c-11.061-84.733-14.981-176.987-14.981-176.987l101.838-5.05c10.246,17.217,14.705,45.462,15.766,77.572
			c1.117,33.764-1.541,71.807-5.229,105.806c-5.15,47.596-12.323,87.271-13.988,96.186c0,0.012,0,0.022-0.012,0.045
			c-0.224,1.173,0.123,2.347,0.671,3.407C1881.026,1364.376,1883.953,1410.263,1880.143,1450.986z"/>
		<path style="fill:#EE9849;" d="M1761.299,909.613c-2.29,55.941-10.659,111.336-35.016,107.772
			c-29.853-4.358-37.63-32.223-39.216-52.937c-0.983-12.893,0.436-23.016,0.436-23.016s14.692-0.067,17.072-2.257
			c11.284-10.424,7.933-112.654,13.519-123.269c5.587-10.614,41.831-17.43,41.831-17.43S1763.578,854.318,1761.299,909.613z"/>
		<path style="fill:#E58638;" d="M1761.299,909.613c-2.29,55.941-10.659,111.336-35.016,107.772
			c-29.853-4.358-37.63-32.223-39.216-52.937c7.329-0.369,20.234-2.156,25.362-9.977c7.34-11.195,30.244-83.259,30.244-83.259
			S1751.679,887.39,1761.299,909.613z"/>
		<path style="fill:#233862;" d="M1822.525,1459.635c-2.692,10.703-5.653,20.894-8.671,30.379c-0.647,2.033-1.284,4.034-1.932,5.988
			c-0.324,0.973-0.648,1.934-0.962,2.883c-0.637,1.877-1.262,3.721-1.888,5.52c-0.815,2.347-1.631,4.637-2.436,6.849
			c-0.592,1.643-1.185,3.252-1.766,4.826c-8.961,24.033-16.469,39.262-16.469,39.262l-17.854-1.229c0,0,6.704-31.888,8.044-77.562
			c0.045-1.631,0.09-3.274,0.123-4.938c0.067-3.542,0.111-7.15,0.111-10.837c0-1.509-0.01-3.04-0.021-4.582
			c-0.358-39.339-5.229-85.828-20.77-130.218c-12.638-36.088-21.799-69.852-28.424-100.364c10.614,2.189,19.96-0.046,47.081-2.324
			c2.85-0.239,16.48,16.636,29.943,38.971c0.692,31.439,16.122,47.227,16.122,47.227
			C1842.077,1351.069,1835.061,1409.771,1822.525,1459.635z"/>
		<path style="fill:#2B478B;" d="M1880.143,1450.986c-5.775,61.63-31.205,101.494-31.205,101.494l-8.681,7.898
			c0,0-7.91-45.126-13.62-96.789c-5.441-49.104-12.903-101.067-21.34-116.934c-12.613-23.697-21.91-72.165-28.603-123.369
			c9.375,3.899,41.272,14.033,97.394,1.341c-5.15,47.596-12.323,87.271-13.988,96.186c0,0.012,0,0.022-0.012,0.045
			c-0.224,1.173,0.123,2.347,0.671,3.407C1881.026,1364.376,1883.953,1410.263,1880.143,1450.986z"/>
		<path style="fill:#2B478B;" d="M1899.649,1151.09c0,0-21.306,6.582-52.694,10.924c-38.864,5.374-93.194,7.312-141.713-10.924
			c0,0-3.999-72.199,7.498-109.835c11.496-37.647,16.87-55.653,16.87-55.653s46.062,11.55,92.841,2.594
			c6.571-1.25,13.153-2.916,19.62-5.072c0,0,28.856,61.266,36.792,87.52S1899.649,1151.09,1899.649,1151.09z"/>
		<path style="fill:#233862;" d="M1899.649,1151.09c0,0-21.306,6.582-52.694,10.924c-57.558-32.637-29.492-169.976-29.492-169.976
			c1.707-1.386,3.375-2.666,4.988-3.843c6.571-1.25,13.153-2.916,19.62-5.072c0,0,28.856,61.266,36.792,87.52
			S1899.649,1151.09,1899.649,1151.09z"/>
		<path style="fill:#EE9849;" d="M1946.766,1013.665c0,14.055-14.334,22.691-29.719,26.892c-14.793,4.045-30.547,3.988-35.473,0.693
			c-8.503-5.698-22.357-69.048-26.402-88.332c-0.726-3.496-1.14-5.542-1.14-5.542s-11.049,26.368-11.396,28.826
			c-0.157,1.106-0.291,2.626-0.392,3.966c-0.111,1.62-0.179,2.961-0.179,2.961s-59.964,30.268-112.453,2.47
			c0,0-21.34-123.325-12.078-144.553c4.604-10.547,28.613-32.313,38.222-41.697c2.156-2.112,1.944-6.29,1.106-10.111
			c-0.692-3.229,2.212-6.067,5.408-5.239c6.178,1.608,17.295,1.33,29.205-2.582c5.933-1.933,12.056-4.771,17.854-8.726
			c1.688-1.15,3.979-0.089,4.234,1.933c0.905,7.353,3.129,20.781,7.185,20.781c5.587-0.033,43.708,4.648,46.501,9.363
			c0.972,1.642,10.882,24.065,23.395,53.774c0,0,0.012,0.023,0.023,0.078C1914.152,914.35,1946.766,995.688,1946.766,1013.665z"/>
		<path style="fill:#E58638;" d="M1854.032,947.376c0,0-11.049,26.368-11.396,28.826c-0.157,1.106-0.291,2.626-0.392,3.966
			c-5.341,4.358-11.799,7.665-18.38,9.665c-18.691,5.664-26.813-30.166-25.697-48.043c1.118-17.876,27.553-68.901,36.356-69.964
			C1843.317,870.776,1854.032,947.376,1854.032,947.376z"/>
		<path style="fill:#E58638;" d="M1855.172,952.918c-0.726-3.496-1.14-5.542-1.14-5.542
			C1854.613,949.265,1854.993,951.108,1855.172,952.918z"/>
		<g>
			<path style="fill:#B64C41;" d="M1778.525,999.192c-34.122,0-48.187-11.743-49.227-12.542l-2.208-16.07
				c0.328,0.242,46.112,27.734,116.968,1.404l-1.502,12.175C1815.307,994.285,1796.248,999.192,1778.525,999.192z"/>
		</g>
		<path style="fill:#E58638;" d="M1946.766,1013.665c0,14.055-14.334,22.691-29.719,26.892
			c21.206-25.25-25.194-178.037-26.379-181.937C1914.152,914.35,1946.766,995.688,1946.766,1013.665z"/>
		<path style="fill:#E58638;" d="M1820.749,795.404c0,0-28.546,18.078-50.144,13.799c0,0-5.185-3.273,1.967-6.569
			c6.715-3.084,22.334-12.212,18.904-21.218c5.933-1.933,12.056-4.771,17.854-8.726c1.688-1.15,3.979-0.089,4.234,1.933
			C1814.47,781.976,1816.693,795.404,1820.749,795.404z"/>
		<g>
			<path style="fill:#233862;" d="M1798.682,1570.313h-11.397c-3.817-0.602-6.636-1.706-10.552-2.218
				c-5.945-0.779-8.683,1.657-9.227,2.218c-0.073,0.073-0.105,0.114-0.105,0.114h-48.412c-1.219-1.738-0.049-5.768,1.097-8.732
				c0.771-2.015,2.452-3.542,4.532-4.143c5.134-1.486,15.255-2.811,24.523-11.201c5.215-4.712,25.181-17.326,25.181-17.326
				l0.104-0.024c0.439,0.008,2.527,0.65,11.607,8.317c4.695,3.957,12.696-5.588,12.696-5.588s1.503,1.242,2.624,3.558
				c0.901,1.827,1.56,4.337,1.04,7.433c-0.724,4.361,1.607,12.469,3.468,17.951c1.129,3.322,2.08,5.678,2.08,5.678
				S1808.485,1569.088,1798.682,1570.313z"/>
			<path style="fill:#466AA5;" d="M1801.354,1535.288c-2.721,1.917-8.464,5.694-12.273,6.189
				c-5.143,0.675-14.759-12.452-14.759-12.452l0.104-0.024c0.439,0.008,2.527,0.65,11.607,8.317
				c4.695,3.957,12.696-5.588,12.696-5.588S1800.232,1532.973,1801.354,1535.288z"/>
			<path style="fill:#466AA5;" d="M1798.682,1570.313h-11.397c-3.817-0.602-6.636-1.706-10.552-2.218
				c-5.945-0.779-8.683,1.657-9.227,2.218c-0.073,0.073-0.105,0.114-0.105,0.114h-48.412c-1.219-1.738-0.049-5.768,1.097-8.732
				c1.471-1.309,1.884,5.678,2.697,6.791c0.812,1.112,39.492,0.405,41.727-1.219c2.233-1.625,8.935-4.468,18.276-2.234
				c8.131,1.942,20.111-3.037,23.076-4.361c1.129,3.322,2.08,5.678,2.08,5.678S1808.485,1569.088,1798.682,1570.313z"/>
		</g>
		<g>
			<path style="fill:#233862;" d="M1859.496,1570.313H1848.1c-3.817-0.602-6.636-1.706-10.551-2.218
				c-5.946-0.779-8.684,1.657-9.229,2.218c-0.072,0.073-0.104,0.114-0.104,0.114h-48.412c-1.219-1.738-0.049-5.768,1.097-8.732
				c0.771-2.015,2.453-3.542,4.532-4.143c5.134-1.486,15.255-2.811,24.523-11.201c5.215-4.712,25.181-17.326,25.181-17.326
				l0.105-0.024c0.438,0.008,2.526,0.65,11.606,8.317c4.695,3.957,12.696-5.588,12.696-5.588s1.502,1.242,2.624,3.558
				c0.901,1.827,1.56,4.337,1.039,7.433c-0.723,4.361,1.608,12.469,3.469,17.951c1.129,3.322,2.079,5.678,2.079,5.678
				S1869.301,1569.088,1859.496,1570.313z"/>
			<path style="fill:#466AA5;" d="M1862.169,1535.288c-2.722,1.917-8.464,5.694-12.273,6.189
				c-5.142,0.675-14.759-12.452-14.759-12.452l0.105-0.024c0.438,0.008,2.526,0.65,11.606,8.317
				c4.695,3.957,12.696-5.588,12.696-5.588S1861.047,1532.973,1862.169,1535.288z"/>
			<path style="fill:#466AA5;" d="M1859.496,1570.313H1848.1c-3.817-0.602-6.636-1.706-10.551-2.218
				c-5.946-0.779-8.684,1.657-9.229,2.218c-0.072,0.073-0.104,0.114-0.104,0.114h-48.412c-1.219-1.738-0.049-5.768,1.097-8.732
				c1.471-1.309,1.885,5.678,2.696,6.791c0.813,1.112,39.493,0.405,41.728-1.219c2.233-1.625,8.935-4.468,18.276-2.234
				c8.13,1.942,20.111-3.037,23.076-4.361c1.129,3.322,2.079,5.678,2.079,5.678S1869.301,1569.088,1859.496,1570.313z"/>
		</g>
		<g>
			<path style="fill:#D37129;" d="M1981.121,1165.6c-1.126-5.658-5.104-10.261-10.514-12.267c-8.774-3.255-23.138-6.189-40.8-0.997
				c-29.811,8.764-32.729,27.088-30.757,40.268s-3.872,34.184-3.015,49.13c0.858,14.945,5.14,52.491,27.213,50.521
				c22.075-1.971,93.227-21.094,93.227-21.094s12.292-23.395-12.96-57.279C1988.536,1193.781,1983.086,1175.468,1981.121,1165.6z"/>
			<g>
				<g>
					<path style="fill:#D37129;" d="M1967.458,1148.327l-5.903,0.533c-0.002-0.01-0.68-4.083-3.389-6.647
						c-2.085-1.967-4.967-2.682-8.557-2.096c-3.402,0.543-5.848,2.104-7.086,4.615c-1.747,3.533-0.779,8.087-0.769,8.136
						L1936,1154.2c-0.071-0.313-1.736-7.711,1.28-13.927c2.072-4.295,5.778-6.768,10.906-7.733
						c5.288-0.847,9.761,0.444,13.297,3.841C1966.36,1141.067,1967.417,1148.038,1967.458,1148.327z"/>
				</g>
				<g>
					<path style="fill:#F1A34F;" d="M2031.102,1267.821c0,0-71.16,19.169-93.252,21.101c-22.073,2.007-26.369-35.538-27.181-50.534
						c-0.869-14.903,4.954-35.923,3.014-49.13c-0.402-2.495-0.626-5.268-0.448-8.056c0.568-11.756,7.154-25.114,31.158-32.162
						c17.713-5.218,32.033-2.24,40.844,1.014c5.381,2.011,9.404,6.594,10.521,12.235c0.26,1.151,0.496,2.553,0.809,3.933
						c2.535,10.489,8.397,26.768,21.587,44.372C2043.414,1244.442,2031.102,1267.821,2031.102,1267.821z"/>
					<path style="opacity:0.4;fill:#D86713;" d="M1921.416,1241.542l42.888-9.705c0,0,9.978,30.715-10.288,36.31
						C1933.749,1273.741,1925.338,1261.851,1921.416,1241.542z"/>
					<path style="fill:#D37129;" d="M1921.416,1241.542c0,0,9.896,9.536,23.266,6.175c13.371-3.362,19.622-15.88,19.622-15.88
						L1921.416,1241.542z"/>
					<path style="opacity:0.4;fill:#D86713;" d="M1973.01,1229.868l42.887-9.704c0,0,9.979,30.714-10.289,36.309
						C1985.342,1262.067,1976.932,1250.176,1973.01,1229.868z"/>
					<path style="fill:#D37129;" d="M1973.01,1229.868c0,0,9.896,9.536,23.266,6.174c13.369-3.36,19.621-15.878,19.621-15.878
						L1973.01,1229.868z"/>
					<path style="opacity:0.4;fill:#D86713;" d="M1995.758,1162.289c0.26,1.151,0.496,2.553,0.809,3.933
						c-5.67,11.7-16.417,26.649-34.608,30.119c-30.935,6.03-48.724-15.139-48.724-15.139c0.568-11.756,7.154-25.114,31.158-32.162
						c17.713-5.218,32.033-2.24,40.844,1.014C1990.617,1152.064,1994.641,1156.647,1995.758,1162.289z"/>
					<path style="fill:#D86713;" d="M1962.396,1202.822L1962.396,1202.822c-1.937,0.438-3.88-0.788-4.317-2.724l-0.725-3.201
						c-0.438-1.937,0.787-3.879,2.724-4.316l0,0c1.937-0.438,3.88,0.787,4.317,2.724l0.725,3.2
						C1965.557,1200.441,1964.332,1202.385,1962.396,1202.822z"/>
				</g>
			</g>
		</g>
		<path style="fill:#D9935C;" d="M1939.702,1093.643c0,0,4.94,11.643,10.085,14.892s10.033,11.046,11.102,17.328
			c1.96,11.53-6.877,18.682-13.375,18.682s-12.709-8.86-16.53-30.02c-0.209-1.164-6.376-13.301-6.376-13.301L1939.702,1093.643z"/>
	</g>
	<g>
		<path style="fill:#233862;" d="M1090.072,656.979c-7.764-11.789-38.591-5.19-68.853,14.738
			c-30.264,19.931-48.502,45.645-40.737,57.435c7.766,11.79,38.592,5.19,68.854-14.738
			C1079.6,694.483,1097.838,668.769,1090.072,656.979z"/>
		<g>
			<path style="fill:#BC3F3F;" d="M931.975,1095.041l5.973,0.358c-0.053-0.133,2.324-104.343,11.466-146.504
				c17.031-78.554,61.543-140.046,62.032-140.572l-10.695-3.428c-0.527,0.568-8.971,13.644-20.924,37.769
				c-11.016,22.232-28.73,59.266-36.551,102.397C935.555,987.654,931.754,1094.479,931.975,1095.041z"/>
		</g>
		<path style="fill:#A53D38;" d="M1039.954,656.054c0,0-39.054-8.332-57.798,23.43c-18.745,31.764-19.786,86.958-32.283,105.008
			c-12.497,18.051-34.539,94.238-11.109,111.286c23.433,17.047,167.775-0.625,175.878-8.398s-0.485-87.783-14.59-110.956
			C1085.947,753.249,1120.314,644.25,1039.954,656.054z"/>
		<path style="fill:#FFB27D;" d="M1098.13,1003.723c44.188-11.245,92.762-79.798,92.762-79.798l-12.442-10.792
			c-12.881,15.186-66.441,41.343-66.441,41.343c0.287-13.897-0.076-26.574-0.954-38.112
			c-5.943-78.417-35.505-104.543-43.573-110.275c-1.303-0.931-2.05-1.319-2.05-1.319s-0.03,0.568-0.076,1.648
			c-0.117,2.33-0.332,7.025-0.552,13.468C1063.164,867.881,1061.205,1013.129,1098.13,1003.723z"/>
		<path style="fill:#FFB27D;" d="M1178.449,913.133c0.187-1.853,1.432-28.793,6.784-33.922c5.352-5.129,15.919-12.114,18.954-11.55
			c3.037,0.566,13.351,17.72,8.48,29.535c-4.868,11.815-21.776,26.729-21.776,26.729L1178.449,913.133z"/>
		<path style="fill:#FFB27D;" d="M1001.91,1459.635c2.693,10.703,5.654,20.894,8.671,30.379c0.648,2.033,1.284,4.034,1.933,5.988
			c0.324,0.973,0.648,1.934,0.961,2.883c0.637,1.877,1.263,3.721,1.889,5.52c0.815,2.347,1.631,4.637,2.436,6.849
			c0.592,1.643,1.184,3.252,1.765,4.826c8.961,24.033,16.47,39.262,16.47,39.262l17.854-1.229c0,0-6.704-31.888-8.045-77.562
			c-0.045-1.631-0.089-3.274-0.123-4.938c-0.067-3.542-0.111-7.15-0.111-10.837c0-1.509,0.011-3.04,0.022-4.582
			c0.357-39.339,5.229-85.828,20.771-130.218c12.636-36.088,21.798-69.852,28.423-100.364
			c21.385-98.499,16.357-163.211,16.357-163.211l-100.443,11.753l-4.681,0.548c-0.426,46.132-1.61,108.766-2.648,157.736
			c-0.18,8.502-0.347,16.592-0.514,24.11c-0.693,31.44-1.219,52.937-1.219,52.937
			C982.358,1351.069,989.375,1409.771,1001.91,1459.635z"/>
		<path style="fill:#FFB27D;" d="M953.983,1051.13c18.983-42.57,28.063-54.608,28.381-68.003
			c0.252-10.593-4.971-22.021-15.117-50.045c-2.388-6.603-4.036-13.393-5.051-20.258c-8.024-54.025,23.217-112.428,42.634-116.406
			c5.403-1.428,14.561-20.941,14.448-52.384l2.433,0.479l40.886,8.097c0,0-0.931,12.867-0.958,24.988
			c-0.027,10.102,0.518,20.38,2.806,21.585c2.943,0.267,35.043,6.003,40.878,15.214c5.735,9.056-0.656,9.89,1.579,42.849
			c2.984,44.026-28.055,96.217-0.527,184.211C1134.479,1131.326,943.497,1074.654,953.983,1051.13z"/>
		<path style="fill:#EF9E67;" d="M1062.597,752.609c0,0-0.931,12.867-0.958,24.988c-22.88-0.646-34.974-21.517-39.928-33.085
			L1062.597,752.609z"/>
		<path style="fill:#FFB27D;" d="M1070.237,764.088c0,0-54.132,0.893-54.169-32.828c-0.038-33.719-7.05-56.313,27.511-58.309
			c34.561-1.995,41.29,10.864,44.04,22.116C1090.369,706.318,1084.317,762.985,1070.237,764.088z"/>
		<path style="fill:#A53D38;" d="M1068.233,672.126c0,0-14.821,39.56-37.566,45.408c-22.746,5.849-32.612-0.245-32.612-0.245
			s17.446-13.86,21.067-38.054C1019.122,679.235,1057.054,653.297,1068.233,672.126z"/>
		<path style="fill:#A53D38;" d="M1064.56,675.337c0,0,11.069,8.831,13.768,17.419c2.699,8.587,3.913,26.263,9.065,25.662
			c0,0,11.166-26.889-1.383-42.1C1072.702,660.19,1064.56,675.337,1064.56,675.337z"/>
		<path style="fill:#FFB27D;" d="M883.582,1096.348l16.252,4.874c0,0,53.607-88.946,58.482-112.091
			c1.59-7.535,5.487-22.613,10.037-39.506c9.412-34.985,21.561-77.794,21.561-77.794l3.999-17.33l13.647-59.097
			c0,0-26.13,2.669-41.413,9.06c-5.061,2.111-8.921,4.632-10.269,7.591c-11.229,24.686-22.438,86.993-30.316,131.439
			c-4.39,24.771-7.739,43.999-9.488,48.073C911.2,1002.935,896.308,1065.482,883.582,1096.348z"/>
		<path style="fill:#A53D38;" d="M1066.616,676.673c0,0-10.56,41.427-39.26,54.694c0,0,28.7-25.451,31.137-52.798
			C1060.931,651.223,1066.616,676.673,1066.616,676.673z"/>
		<path style="fill:#FFB27D;" d="M944.293,1450.986c5.777,61.63,31.206,101.494,31.206,101.494l8.681,7.898
			c0,0,7.91-45.126,13.62-96.789c5.44-49.104,12.903-101.067,21.339-116.934c12.614-23.697,21.91-72.165,28.603-123.369
			c11.062-84.733,14.983-176.987,14.983-176.987l-101.84-5.05c-10.245,17.217-14.703,45.462-15.765,77.572
			c-1.117,33.764,1.542,71.807,5.228,105.806c5.151,47.596,12.324,87.271,13.989,96.186c0,0.012,0,0.022,0.011,0.045
			c0.224,1.173-0.122,2.347-0.67,3.407C943.41,1364.376,940.483,1410.263,944.293,1450.986z"/>
		<path style="fill:#FFB93E;" d="M1137.365,964.451c-1.583,20.714-9.361,48.581-39.208,52.935
			c-10.56,1.541-18.11-7.987-23.474-23.849c-7.009-20.724-10.258-52.236-11.549-83.926c-1.239-30.014-0.729-60.203,0-81.521
			c12.247-1.385,34.721-11.758,41.614-14.34c0.198,0.208,0.396,0.427,0.573,0.646c0.145,0.167,0.28,0.345,0.405,0.522
			c0.24,0.332,0.438,0.656,0.614,0.989c2.979,5.655,3.416,37.386,4.895,67.336c1.281,26.213,3.364,51.059,8.623,55.934
			c2.386,2.186,17.068,2.26,17.068,2.26S1138.355,951.559,1137.365,964.451z"/>
		<path style="fill:#FFA412;" d="M1063.138,909.613c2.29,55.941,10.658,111.336,35.015,107.772
			c29.854-4.358,37.63-32.223,39.217-52.937c-7.33-0.369-20.234-2.156-25.362-9.977c-7.341-11.195-30.245-83.259-30.245-83.259
			S1072.758,887.39,1063.138,909.613z"/>
		<path style="fill:#2B478B;" d="M1094.823,985.599c0,0-59.908,15.032-112.459-2.472c0,0-28.854,61.262-36.793,87.518
			c-7.938,26.255-67.901,362.287-67.901,362.287s131.969,38.167,219.675,5.207c0,0,25.848-359.249,14.351-396.89
			C1100.197,1003.609,1094.823,985.599,1094.823,985.599z"/>
		<path style="fill:#FFB93E;" d="M1111.236,883.012c-4.384,43.307-16.412,102.052-16.412,102.052
			c-6.634,3.509-13.393,6.084-20.141,7.911c-46.55,12.646-92.31-10.372-92.31-10.372s-0.072-1.339-0.187-2.96
			c-0.094-1.339-0.229-2.844-0.386-3.955c-0.344-2.45-11.393-28.74-11.393-28.74s-0.417,2.047-1.146,5.535
			c-4.041,19.219-17.901,82.376-26.399,88.065c-4.926,3.281-20.682,3.333-35.47-0.695c-15.392-4.184-29.722-12.802-29.722-26.809
			c0-17.931,32.606-99.019,56.1-154.577c0.011-0.063,0.021-0.083,0.021-0.083c12.508-29.622,19.773-50.229,29.341-52.533
			c0,0,64.354,26.191,100.001,22.175c12.247-1.382,34.721-11.724,41.614-14.298c0.198,0.207,0.396,0.426,0.573,0.644
			c0.145,0.167,0.28,0.342,0.405,0.52c0.14,0.192,0.261,0.382,0.376,0.571c5.223,7.696,4.398,20.462,4.665,25.333
			C1111.288,850.313,1113.194,863.627,1111.236,883.012z"/>
		<path style="fill:#FFA412;" d="M970.404,947.376c0,0,11.049,26.368,11.396,28.826c0.156,1.106,0.29,2.626,0.39,3.966
			c5.341,4.358,11.799,7.665,18.38,9.665c18.691,5.664,26.814-30.166,25.697-48.043c-1.118-17.876-27.552-68.901-36.357-69.964
			C981.118,870.776,970.404,947.376,970.404,947.376z"/>
		<path style="fill:#E58638;" d="M969.264,952.918c0.727-3.496,1.141-5.542,1.141-5.542
			C969.822,949.265,969.443,951.108,969.264,952.918z"/>
		<g>
			<path style="fill:#163560;" d="M1046.438,997.025c34.121,0,47.659-9.576,48.7-10.375l2.207-16.07
				c-0.327,0.242-46.111,27.734-116.966,1.404l1.502,12.175C1009.129,994.285,1028.715,997.025,1046.438,997.025z"/>
		</g>
		<path style="fill:#FFA412;" d="M877.67,1013.665c0,14.055,14.334,22.691,29.72,26.892
			c-21.206-25.25,25.194-178.037,26.379-181.937C910.283,914.35,877.67,995.688,877.67,1013.665z"/>
		<g>
			<path style="fill:#233862;" d="M1025.756,1570.313h11.396c3.818-0.602,6.636-1.706,10.552-2.218
				c5.945-0.779,8.684,1.657,9.228,2.218c0.073,0.073,0.106,0.114,0.106,0.114h48.41c1.219-1.738,0.049-5.768-1.097-8.732
				c-0.771-2.015-2.452-3.542-4.531-4.143c-5.134-1.486-15.255-2.811-24.522-11.201c-5.215-4.712-25.182-17.326-25.182-17.326
				l-0.104-0.024c-0.439,0.008-2.526,0.65-11.608,8.317c-4.695,3.957-12.695-5.588-12.695-5.588s-1.503,1.242-2.624,3.558
				c-0.901,1.827-1.56,4.337-1.04,7.433c0.724,4.361-1.608,12.469-3.468,17.951c-1.13,3.322-2.079,5.678-2.079,5.678
				S1015.951,1569.088,1025.756,1570.313z"/>
			<path style="fill:#466AA5;" d="M1023.083,1535.288c2.721,1.917,8.464,5.694,12.273,6.189
				c5.143,0.675,14.759-12.452,14.759-12.452l-0.104-0.024c-0.439,0.008-2.526,0.65-11.608,8.317
				c-4.695,3.957-12.695-5.588-12.695-5.588S1024.204,1532.973,1023.083,1535.288z"/>
			<path style="fill:#466AA5;" d="M1025.756,1570.313h11.396c3.818-0.602,6.636-1.706,10.552-2.218
				c5.945-0.779,8.684,1.657,9.228,2.218c0.073,0.073,0.106,0.114,0.106,0.114h48.41c1.219-1.738,0.049-5.768-1.097-8.732
				c-1.47-1.309-1.884,5.678-2.696,6.791c-0.813,1.112-39.493,0.405-41.727-1.219c-2.234-1.625-8.936-4.468-18.276-2.234
				c-8.13,1.942-20.112-3.037-23.076-4.361c-1.13,3.322-2.079,5.678-2.079,5.678S1015.951,1569.088,1025.756,1570.313z"/>
		</g>
		<g>
			<path style="fill:#233862;" d="M964.94,1570.313h11.396c3.818-0.602,6.636-1.706,10.552-2.218
				c5.945-0.779,8.684,1.657,9.227,2.218c0.073,0.073,0.106,0.114,0.106,0.114h48.412c1.218-1.738,0.048-5.768-1.098-8.732
				c-0.771-2.015-2.452-3.542-4.531-4.143c-5.134-1.486-15.256-2.811-24.523-11.201c-5.215-4.712-25.181-17.326-25.181-17.326
				l-0.104-0.024c-0.439,0.008-2.527,0.65-11.608,8.317c-4.695,3.957-12.695-5.588-12.695-5.588s-1.503,1.242-2.624,3.558
				c-0.901,1.827-1.56,4.337-1.04,7.433c0.724,4.361-1.607,12.469-3.468,17.951c-1.13,3.322-2.08,5.678-2.08,5.678
				S955.136,1569.088,964.94,1570.313z"/>
			<path style="fill:#466AA5;" d="M962.268,1535.288c2.721,1.917,8.463,5.694,12.273,6.189c5.143,0.675,14.759-12.452,14.759-12.452
				l-0.104-0.024c-0.439,0.008-2.527,0.65-11.608,8.317c-4.695,3.957-12.695-5.588-12.695-5.588S963.389,1532.973,962.268,1535.288z
				"/>
			<path style="fill:#466AA5;" d="M964.94,1570.313h11.396c3.818-0.602,6.636-1.706,10.552-2.218
				c5.945-0.779,8.684,1.657,9.227,2.218c0.073,0.073,0.106,0.114,0.106,0.114h48.412c1.218-1.738,0.048-5.768-1.098-8.732
				c-1.47-1.309-1.884,5.678-2.695,6.791c-0.813,1.112-39.493,0.405-41.729-1.219c-2.233-1.625-8.935-4.468-18.275-2.234
				c-8.13,1.942-20.112-3.037-23.076-4.361c-1.13,3.322-2.08,5.678-2.08,5.678S955.136,1569.088,964.94,1570.313z"/>
		</g>
		<path style="fill:#FFB27D;" d="M884.734,1093.643c0,0-4.941,11.643-10.086,14.892c-5.144,3.249-10.032,11.046-11.102,17.328
			c-1.959,11.53,6.877,18.682,13.376,18.682c6.498,0,12.709-8.86,16.529-30.02c0.21-1.164,6.377-13.301,6.377-13.301
			L884.734,1093.643z"/>
		<g>
			<polygon style="fill:#EE9849;" points="1203.026,853.057 1202.266,860.866 1199.871,885.465 1198.34,901.221 1166.931,901.221 
				1165.005,885.465 1161.984,860.866 1161.026,853.057 			"/>
			<polygon style="fill:#D17A33;" points="1205.258,853.057 1158.553,853.057 1159.465,848.37 1204.114,848.37 			"/>
			<polygon style="fill:#D17A33;" points="1202.266,860.866 1199.871,885.465 1165.005,885.465 1161.984,860.866 			"/>
		</g>
		<path style="fill:#FFB27D;" d="M1206.396,869.721c0,0-7.932-8.857-15.866-2.089c-7.935,6.769,0.526,21.223,7.408,25.174
			c6.882,3.951,9.09,6.011,9.09,6.011L1206.396,869.721z"/>
		<g>
			<path style="fill:#BC3F3F;" d="M1026.368,1095.521l-5.966-0.448c0.069-0.126,11.678-104.404,8.27-147.697
				c-6.352-80.661-42.222-148.008-42.635-148.601l11.057-1.977c0.447,0.638,7.061,14.822,15.674,40.502
				c7.938,23.663,20.53,62.998,22.499,107.08C1037.212,987.91,1026.664,1094.99,1026.368,1095.521z"/>
		</g>
		<g>
			<path style="fill:#D2E4FF;" d="M954.042,1072.586c0,0,5.799-14.273,15.018-17.835l47.075,8.872c0,0-11.621,11.057-12.715,18.269
				L954.042,1072.586z"/>
			<path style="fill:#912F2F;" d="M1013.144,1153.136l-80.459-15.163c-3.781-0.713-6.268-4.355-5.556-8.135l10.052-53.341
				c0.713-3.781,4.356-6.268,8.136-5.556l80.46,15.164c3.78,0.711,6.268,4.354,5.556,8.135l-10.053,53.34
				C1020.567,1151.361,1016.925,1153.849,1013.144,1153.136z"/>
			<g>
				
					<rect x="945.492" y="1043.133" transform="matrix(1 0.0088 -0.0088 1 9.3867 -8.4063)" style="fill:#E58638;" width="38.476" height="49.324"/>
				
					<rect x="943.288" y="1043.114" transform="matrix(1 0.0087 -0.0087 1 9.3615 -8.3649)" style="fill:#EE9849;" width="38.476" height="49.324"/>
			</g>
			<g>
				
					<rect x="955.882" y="1055.984" transform="matrix(0.7941 0.6078 -0.6078 0.7941 857.6293 -370.1645)" style="fill:#578E9B;" width="38.477" height="49.324"/>
				
					<rect x="952.467" y="1053.371" transform="matrix(0.7941 0.6078 -0.6078 0.7941 855.3048 -368.6246)" style="fill:#74ACBE;" width="38.476" height="49.323"/>
			</g>
			<path style="fill:#BC3F3F;" d="M993.487,1149.432l-77.038-14.519c-4.725-0.891-7.834-5.443-6.944-10.169l9.408-49.919
				c0.891-4.726,5.444-7.834,10.169-6.943l77.039,14.519c4.725,0.891,7.834,5.443,6.943,10.168l-9.408,49.92
				C1002.766,1147.214,998.213,1150.322,993.487,1149.432z"/>
		</g>
		<path style="fill:#233862;" d="M975.275,699.883c0,0-24.628-49.021,9.788-68.4c34.415-19.378,59.605-11.768,78.54,11.93
			L975.275,699.883z"/>
		<path style="fill:#2B478B;" d="M1113.924,638.025c-7.082-11.351-31.866-9.518-61.775,2.729
			c-11.695,4.78-24.149,11.163-36.647,18.953c-15.548,9.695-29.085,20.308-39.708,30.69c-19.808,19.369-29.471,37.906-23.057,48.195
			c1.969,3.135,4.905,5.166,9.32,6.343c4.385-9.445,16.974-18.291,20.536-25.649c5.036-10.403,17.777-29.254,41.094-43.802
			c17.912-11.174,35.73-17.746,47.988-18.537c7.133-0.458,12.392,1.031,14.704,4.739c1.802,2.894,1.614,6.81-0.25,11.34
			c1.749,2.937,3.729,7.082,5.363,12.58C1110.883,666.467,1120.276,648.201,1113.924,638.025z"/>
	</g>
	<g>
		<path style="fill:#F9DDBF;" d="M1924.607,296.182c-79.239,0-143.706,64.466-143.706,143.706
			c0,79.239,64.467,143.704,143.706,143.704c79.24,0,143.705-64.465,143.705-143.704
			C2068.313,360.648,2003.848,296.182,1924.607,296.182z M1924.607,574.221c-74.071,0-134.333-60.262-134.333-134.333
			c0-74.072,60.262-134.334,134.333-134.334c74.072,0,134.333,60.262,134.333,134.334
			C2058.94,513.959,1998.68,574.221,1924.607,574.221z"/>
		<path style="fill:#F9DDBF;" d="M1924.607,330.945c3.163,0,5.728-2.564,5.728-5.728c0-3.164-2.564-5.728-5.728-5.728
			c-3.164,0-5.728,2.564-5.728,5.728C1918.88,328.38,1921.443,330.945,1924.607,330.945z"/>
		<path style="fill:#F9DDBF;" d="M1924.607,550.679c-3.164,0-5.728,2.565-5.728,5.728c0,3.164,2.563,5.727,5.728,5.727
			c3.163,0,5.728-2.563,5.728-5.727C1930.335,553.244,1927.771,550.679,1924.607,550.679z"/>
		<path style="fill:#F9DDBF;" d="M2034.474,435.084c-3.163,0-5.728,2.564-5.728,5.728c0,3.163,2.564,5.728,5.728,5.728
			c3.164,0,5.729-2.564,5.729-5.728C2040.202,437.648,2037.638,435.084,2034.474,435.084z"/>
		<path style="fill:#F9DDBF;" d="M1978.066,531.777c-2.184,2.289-2.096,5.915,0.193,8.098c2.289,2.184,5.914,2.097,8.098-0.192
			c2.183-2.289,2.096-5.915-0.193-8.097C1983.875,529.402,1980.25,529.488,1978.066,531.777z"/>
		<path style="fill:#F9DDBF;" d="M2015.557,496.142c-2.183,2.29-2.097,5.916,0.192,8.099c2.29,2.183,5.915,2.097,8.099-0.192
			c2.183-2.289,2.097-5.915-0.193-8.098C2021.365,493.768,2017.739,493.853,2015.557,496.142z"/>
		<path style="fill:#F9DDBF;" d="M2022.188,391.299c2.85-1.372,4.047-4.795,2.676-7.646c-1.373-2.85-4.797-4.047-7.646-2.675
			c-2.851,1.373-4.048,4.796-2.675,7.646C2015.914,391.475,2019.338,392.672,2022.188,391.299z"/>
		<path style="fill:#F9DDBF;" d="M1985.318,342.41c-2.658-1.716-6.203-0.952-7.918,1.706c-1.716,2.658-0.952,6.203,1.705,7.918
			c2.658,1.716,6.203,0.952,7.918-1.706C1988.74,347.67,1987.976,344.125,1985.318,342.41z"/>
		<path style="fill:#F9DDBF;" d="M1823.043,433.166c-3.164,0-5.729,2.564-5.729,5.728c0,3.163,2.564,5.728,5.729,5.728
			c3.162,0,5.727-2.564,5.727-5.728C1828.77,435.729,1826.205,433.166,1823.043,433.166z"/>
		<path style="fill:#F9DDBF;" d="M1871.353,529.666c-2.29,2.184-2.375,5.809-0.192,8.099c2.183,2.289,5.809,2.375,8.098,0.192
			c2.289-2.183,2.375-5.809,0.193-8.098C1877.268,527.569,1873.641,527.483,1871.353,529.666z"/>
		<path style="fill:#F9DDBF;" d="M1833.862,494.031c-2.289,2.183-2.376,5.808-0.192,8.098c2.183,2.289,5.808,2.376,8.098,0.192
			c2.29-2.183,2.375-5.809,0.192-8.098C1839.777,491.935,1836.151,491.849,1833.862,494.031z"/>
		<path style="fill:#F9DDBF;" d="M1835.329,389.38c2.851,1.372,6.272,0.175,7.646-2.675s0.176-6.273-2.675-7.646
			c-2.85-1.373-6.272-0.175-7.646,2.675C1831.282,384.585,1832.479,388.007,1835.329,389.38z"/>
		<path style="fill:#F9DDBF;" d="M1872.198,340.491c-2.657,1.715-3.421,5.261-1.706,7.919c1.717,2.658,5.261,3.421,7.919,1.706
			c2.657-1.716,3.422-5.261,1.706-7.918C1878.401,339.539,1874.856,338.775,1872.198,340.491z"/>
		<path style="fill:#F9DDBF;" d="M1978.598,397.873l-46.816,32.353c-0.168-0.104-0.342-0.2-0.521-0.287l-5.023-88.445v88.454
			c-1.896,0.934-3.205,2.88-3.205,5.137c0,3.164,2.563,5.728,5.728,5.728c3.163,0,5.728-2.565,5.728-5.728
			c0-0.289-0.029-0.572-0.069-0.85L1978.598,397.873z"/>
	</g>
	<path style="fill:#2E3552;" d="M2767.536,1577.53H95.908c-1.669,0-3.034-1.365-3.034-3.034v-1.035c0-1.669,1.365-3.033,3.034-3.033
		h2671.628c1.669,0,3.034,1.364,3.034,3.033v1.035C2770.57,1576.165,2769.205,1577.53,2767.536,1577.53z"/>
</g>
</svg>
