<?xml version="1.0" encoding="utf-8"?>
<!-- Generator: Adobe Illustrator 27.5.0, SVG Export Plug-In . SVG Version: 6.00 Build 0)  -->
<svg version="1.1" xmlns="http://www.w3.org/2000/svg" xmlns:xlink="http://www.w3.org/1999/xlink" x="0px" y="0px"
	 viewBox="0 0 500 500" style="enable-background:new 0 0 500 500;" xml:space="preserve">
<g id="BACKGROUND">
	<rect style="fill:#F9FFF3;" width="500" height="500"/>
</g>
<g id="OBJECTS">
	<path style="opacity:0.1;fill:#2C2A40;" d="M411.245,180.794c-8.958-34.793-41.655-32.629-72.635-26.173
		c-16.665,3.473-40.001,8.278-64.353,1.182c-52.415-15.275-112.683-19.089-142.384,0c-29.7,19.089-47.555,42.09-38.99,74.224
		c8.564,32.134,30.321,61.025,11.818,78.223s-18.192,82.332,57.893,87.404c76.085,5.072,68.539-67.943,118.786-64.553
		c50.248,3.39,153.394,52.818,157.751,16.983c4.357-35.835-51.606-61.396-31.544-120.901
		C411.568,215.372,415.339,196.696,411.245,180.794z"/>
	<g>
		<path style="opacity:0.1;fill:#2C2A40;" d="M236.293,123.852c0,0,1.943-12.478,7.414-11.992c1.514,0.135,2.544,1.669,3.219,3.317
			c0.416,1.015,1.87,0.944,2.171-0.111c1.448-5.07,4.408-12.809,8.996-12.809c4.745,0,4.902,8.854,4.558,14.247
			c-0.052,0.812,1.001,1.173,1.458,0.5c1.252-1.842,3.078-3.611,5.3-3.098c4.327,0.998,3.162,9.946,3.162,9.946H236.293z"/>
		<path style="opacity:0.1;fill:#2C2A40;" d="M36.2,241.2c0,0,1.943-12.478,7.414-11.992c1.514,0.135,2.544,1.669,3.219,3.317
			c0.416,1.015,1.87,0.944,2.171-0.111c1.447-5.07,4.408-12.809,8.996-12.809c4.745,0,4.902,8.855,4.558,14.247
			c-0.052,0.812,1.001,1.173,1.458,0.5c1.252-1.842,3.078-3.611,5.3-3.098c4.327,0.999,3.162,9.946,3.162,9.946H36.2z"/>
		<path style="opacity:0.1;fill:#2C2A40;" d="M421.164,191.346c0,0,1.943-12.478,7.414-11.992c1.514,0.135,2.544,1.669,3.219,3.317
			c0.416,1.015,1.869,0.944,2.171-0.111c1.448-5.07,4.408-12.809,8.996-12.809c4.745,0,4.902,8.854,4.558,14.247
			c-0.052,0.812,1.001,1.173,1.458,0.5c1.252-1.842,3.078-3.611,5.299-3.098c4.327,0.998,3.162,9.946,3.162,9.946H421.164z"/>
	</g>
	<g>
		<g>
			<path style="fill:#7B7B9A;" d="M406.829,395.028c0,0,6.108-1.078,5.749-9.163c-0.359-8.085-3.054-19.224-8.444-22.458
				c-5.39-3.234-9.324,1.437-9.324,1.437L406.829,395.028z"/>
			<path style="fill:#B0B1CA;" d="M382.754,363.409c0.181,2.695,2.695,6.646,8.085,9.521c5.39,2.875,8.265,13.116,10.688,17.606
				c1.113,2.064,2.323,3.18,3.307,3.786c1.156,0.706,1.997,0.706,1.997,0.706s0.03-0.709,0.035-1.935
				c0.016-2.916-0.113-8.756-1.151-14.954c-1.474-8.802-6.691-11.858-6.691-11.858c-0.951-1.622-3.002-2.778-5.339-3.509
				c-3.821-1.194-8.403-1.248-10.179-0.348C383.004,362.676,382.727,363.007,382.754,363.409z"/>
			<path style="fill:#2C2A40;" d="M403.637,376.703c1.275,5.393,1.851,14.291,1.197,17.619c1.156,0.706,1.997,0.706,1.997,0.706
				s0.358-8.085-1.116-16.889c-1.474-8.802-6.691-11.858-6.691-11.858c-0.951-1.622-3.002-2.778-5.339-3.509
				C396.773,365.866,402.556,372.138,403.637,376.703z"/>
			<path style="opacity:0.2;fill:#2C2A40;" d="M382.754,363.409c0.181,2.695,2.695,6.646,8.085,9.521
				c5.39,2.875,8.265,13.116,10.688,17.606c1.113,2.064,2.323,3.18,3.307,3.786c1.156,0.706,1.997,0.706,1.997,0.706
				s0.03-0.709,0.035-1.935c-0.121-0.111-0.253-0.186-0.396-0.221c-1.795-0.45-4.22-1.143-5.659-7.815
				c-1.436-6.673-3.862-11.499-7.993-13.564c-3.77-1.884-8.505-8.004-9.311-9.068C383.004,362.676,382.727,363.007,382.754,363.409z
				"/>
		</g>
		<path style="fill:#2C2A40;" d="M339.345,194.564c0,0,41.605-6.249,52.9,11.418c11.295,17.667-3.877,76.719-16.121,85.661
			c-12.243,8.942-32.586,4.307-40.199-1.314C328.313,284.709,324.781,203.095,339.345,194.564z"/>
		<path style="fill:#00497B;" d="M387.542,268.098c0,0,5.273-1.258,7.16-7.456l-6.288-2.785
			C388.414,257.857,385.952,264.235,387.542,268.098z"/>
		<path style="fill:#F9B587;" d="M387.543,257.229c8.624,13.116,28.089,16.528,28.089,16.528c4.029-1.178,9.4-6.783,14.712-13.62
			h0.003c10.09-12.995,19.961-30.442,19.961-30.442l-8.085-2.695c0,0-14.194,15.676-20.301,19.088
			c-6.109,3.415-7.907,6.648-7.907,6.648c-0.636-0.693-1.372-1.369-2.164-2.021c-4.342-3.581-10.324-6.382-10.324-6.382
			C394.609,242.399,387.543,257.229,387.543,257.229z"/>
		<path style="fill:#F39568;" d="M387.543,257.229c8.624,13.116,28.089,16.528,28.089,16.528c4.029-1.178,9.4-6.783,14.712-13.62
			c0,0-9.486,10.079-15.52,10.925c-6.031,0.846-17.458-7.365-18.611-10.51c-1.151-3.145,0.55-11.146,5.314-16.218
			C394.609,242.399,387.543,257.229,387.543,257.229z"/>
		<path style="fill:#2C2A40;" d="M304.799,291.643c0,0-0.454,26.513,3.268,43.255c3.722,16.742,19.622-27.409,19.622-27.409
			S313.439,294.977,304.799,291.643z"/>
		<path style="fill:#2C2A40;" d="M360.373,307.174c0,0-0.345,15.63-10.586,26.68c-10.241,11.049-14.639,23.985-14.639,23.985
			s15.329-7.007,25.225-5.12c0,0,5.179,0.27,7.066-1.886c1.887-2.156,2.425-4.716,5.39-3.908c2.964,0.809,7.142-0.135,8.22-0.27
			c1.078-0.135,7.95,10.78,6.602,17.921c0,0-5.39,1.482-6.063,2.426c-0.674,0.943-4.581,4.986-7.007,4.851
			c-2.425-0.135-8.893,3.638-8.893,3.638s-33.33,12.682-36.381,14.822c-5.139,3.605-29.375,7.546-31.53-6.064
			c-2.156-13.609,18.999-78.287,21.964-85.294C322.703,291.948,356.81,298.685,360.373,307.174z"/>
		<g>
			<path style="fill:#5B5B6C;" d="M330.067,352.03l0.939,0.343c0.341-0.934,0.759-1.928,1.242-2.955l-0.905-0.426
				C330.848,350.046,330.418,351.068,330.067,352.03z"/>
			<path style="fill:#5B5B6C;" d="M379.343,350.673l0.214,0.977c0.99-0.217,2.058-0.426,3.175-0.62l-0.172-0.985
				C381.429,350.241,380.346,350.453,379.343,350.673z"/>
			<path style="fill:#5B5B6C;" d="M329.803,359.727l-0.994,0.11l0.013,0.112c0.171,1.38,0.586,2.41,1.271,3.15l0.734-0.679
				c-0.53-0.573-0.87-1.445-1.013-2.597L329.803,359.727z"/>
			<path style="fill:#5B5B6C;" d="M337.699,362.667l0.269,0.963c1.027-0.287,2.108-0.634,3.127-0.964l-0.309-0.951
				C339.777,362.042,338.707,362.385,337.699,362.667z"/>
			<path style="fill:#5B5B6C;" d="M336.91,339.423c-0.632,0.949-1.229,1.872-1.773,2.742l0.848,0.531
				c0.54-0.863,1.131-1.777,1.758-2.719L336.91,339.423z"/>
			<path style="fill:#5B5B6C;" d="M334.82,344.608l-0.861-0.508c-0.583,0.987-1.121,1.949-1.6,2.858l0.885,0.466
				C333.715,346.529,334.245,345.581,334.82,344.608z"/>
			<path style="fill:#5B5B6C;" d="M355.547,306.109l-0.985-0.171c-0.183,1.055-0.398,2.119-0.638,3.162l0.975,0.225
				C355.142,308.264,355.361,307.182,355.547,306.109z"/>
			<path style="fill:#5B5B6C;" d="M340.863,335.461l-0.815-0.58c-0.681,0.956-1.293,1.831-1.871,2.671L339,338.12
				C339.576,337.283,340.185,336.414,340.863,335.461z"/>
			<path style="fill:#5B5B6C;" d="M343.276,330.42c-0.634,0.867-1.274,1.745-1.914,2.631l0.81,0.585
				c0.639-0.884,1.278-1.76,1.911-2.626L343.276,330.42z"/>
			<path style="fill:#5B5B6C;" d="M330.334,354.474l-0.965-0.261c-0.312,1.155-0.51,2.26-0.59,3.284l0.997,0.078
				C329.851,356.612,330.039,355.569,330.334,354.474z"/>
			<path style="fill:#5B5B6C;" d="M332.509,363.299l-0.188,0.982c0.377,0.073,0.793,0.109,1.237,0.109
				c0.646,0,1.358-0.074,2.178-0.227l-0.184-0.983C334.298,363.414,333.307,363.452,332.509,363.299z"/>
			<path style="fill:#5B5B6C;" d="M359.281,358.96l0.167,0.986c1.089-0.184,2.173-0.42,3.221-0.701l-0.259-0.966
				C361.392,358.552,360.339,358.781,359.281,358.96z"/>
			<path style="fill:#5B5B6C;" d="M364.527,357.629l0.328,0.945c1.1-0.382,2.129-0.812,3.058-1.277l-0.448-0.894
				C366.575,356.849,365.587,357.261,364.527,357.629z"/>
			<path style="fill:#5B5B6C;" d="M342.932,361.022l0.302,0.954c1.249-0.395,2.203-0.673,3.095-0.9l-0.247-0.969
				C345.171,360.338,344.199,360.621,342.932,361.022z"/>
			<path style="fill:#5B5B6C;" d="M353.886,359.442l0.009,1c1.085-0.01,2.192-0.072,3.292-0.187l-0.103-0.995
				C356.015,359.372,354.939,359.433,353.886,359.442z"/>
			<path style="fill:#5B5B6C;" d="M373.975,352.206l0.362,0.932c0.854-0.332,1.88-0.657,3.049-0.966l-0.256-0.967
				C375.925,351.525,374.864,351.861,373.975,352.206z"/>
			<path style="fill:#5B5B6C;" d="M370.847,354.05c-0.383,0.417-0.886,0.84-1.495,1.257l0.565,0.826
				c0.672-0.459,1.233-0.933,1.668-1.407c0.197-0.215,0.471-0.434,0.814-0.651l-0.535-0.845
				C371.445,353.494,371.103,353.77,370.847,354.05z"/>
			<path style="fill:#5B5B6C;" d="M353.38,311.265c-0.285,1.047-0.599,2.084-0.936,3.083l0.948,0.319
				c0.343-1.018,0.664-2.074,0.953-3.14L353.38,311.265z"/>
			<path style="fill:#5B5B6C;" d="M344.606,328.603l0.807,0.59c0.653-0.893,1.294-1.771,1.916-2.631l-0.81-0.586
				C345.898,326.835,345.258,327.711,344.606,328.603z"/>
			<path style="fill:#5B5B6C;" d="M350.304,321.861l-0.881-0.473c-0.515,0.957-1.064,1.886-1.634,2.76l0.838,0.546
				C349.212,323.797,349.777,322.844,350.304,321.861z"/>
			<path style="fill:#5B5B6C;" d="M350.423,319.401l0.905,0.425c0.456-0.969,0.89-1.986,1.291-3.021l-0.933-0.361
				C351.293,317.458,350.868,318.453,350.423,319.401z"/>
			<path style="fill:#5B5B6C;" d="M348.321,359.623l0.168,0.986c1.173-0.2,2.177-0.274,3.126-0.226l0.051-0.999
				C350.643,359.332,349.569,359.411,348.321,359.623z"/>
		</g>
		<path style="fill:#F9B587;" d="M303.569,114.218l4.064,17.32l0.024,0.108c0,0,0.267,3.207,1.143,7.443
			c0.975,4.719,2.708,10.718,5.67,14.981c0.453,0.655,0.935,1.269,1.45,1.83c0,0,2.574,9.888,5.347,18.428h0.003
			c1.633,5.031,3.334,9.597,4.622,11.394c0,0,16.423-3.086,12.488-12.906c0,0-5.587-12.803-9.987-22.241
			c-0.003-0.005-0.003-0.008-0.003-0.008c-0.852-1.827-1.66-3.528-2.374-4.986l-5.034-11.488l-2.412-5.506l-7.319-16.706
			L303.569,114.218z"/>
		<path style="fill:#F39568;" d="M321.27,174.329c1.633,5.031,3.334,9.597,4.622,11.394c0,0,16.423-3.086,12.488-12.906
			c0,0-5.587-12.803-9.987-22.241c0.105,0.367,3.951,13.857,2.8,17.649C330.025,172.07,326.613,175.692,321.27,174.329z"/>
		<path style="fill:#E03641;" d="M321.369,186.361c0.243,7.139,3.183,15.644,6.589,20.713c2.053,2.164,4.622,2.156,7.247,1.027
			c6.675-2.865,13.736-12.96,13.736-12.96l-9.618-20.333l-0.943-1.992c-5.433,1.482-10.936,5.349-14.129,7.88
			c-1.727,1.369-2.779,2.347-2.779,2.347C321.361,184.1,321.331,185.213,321.369,186.361z"/>
		<path style="opacity:0.2;fill:#2C2A40;" d="M321.369,186.361c0.243,7.139,3.183,15.644,6.589,20.713
			c2.053,2.164,4.622,2.156,7.247,1.027c-5.764-5.724-9.707-21.745-10.955-27.405c-1.727,1.369-2.779,2.347-2.779,2.347
			C321.361,184.1,321.331,185.213,321.369,186.361z"/>
		<path style="fill:#2C2A40;" d="M321.369,186.361c4.498-4.465,14.79-9.928,17.953-11.553l-0.943-1.992
			c-8.37,2.285-16.908,10.227-16.908,10.227C321.361,184.1,321.331,185.213,321.369,186.361z"/>
		<path style="fill:#E03641;" d="M299.527,295.047c12.515,16.204,64.783,17.247,64.783,17.247s-1.851-21.449,0-32.069
			c2.037-11.677,3.803-28.836,3.803-28.836c4.781,3.495,12.084,10.001,16.242,13.779c1.935,1.76,3.188,2.929,3.188,2.929
			c1.313-6.021,3.129-10.58,5.021-14.011c4.29-7.783,8.963-9.753,8.963-9.753l-2.188-2.859l-15.865-20.718l-17.048-14.124
			l-2.935-2.431l-13.415-8.594l-5.492-3.52c0,0-14.199,5.942-18.242,12.114c-4.042,6.169-13.329,34.767-16.169,48.805
			c-3.684,18.207-8.106,33.619-9.866,39.494l-0.005,0.011C299.81,294.152,299.527,295.047,299.527,295.047z"/>
		<path style="opacity:0.2;fill:#2C2A40;" d="M299.527,295.047c12.515,16.204,64.783,17.247,64.783,17.247s-1.851-21.449,0-32.069
			c2.037-11.677,3.803-28.836,3.803-28.836c4.781,3.495,12.084,10.001,16.242,13.779c1.935,1.76,3.188,2.929,3.188,2.929
			c1.313-6.021,3.129-10.58,5.021-14.011c0,0-18.321-9.927-26.15-18.598c0,0-9.762,26.999-13.123,40.603
			c-4.349,17.607-19.102,24.794-32.638,23.894c-13.534-0.897-20.347-7.486-20.347-7.486l-0.005,0.011
			C299.81,294.152,299.527,295.047,299.527,295.047z"/>
		<path style="fill:#2C2A40;" d="M358.082,209.79c3.099-0.609,4.674-2.334,7.027-4.248l-1.618-1.34l-14.31-11.359
			c-1.897,1.205-4.268,2.388-4.597,7.209C344.085,207.328,351.758,211.033,358.082,209.79z"/>
		<path style="fill:#2C2A40;" d="M384.355,265.168c1.935,1.76,3.188,2.929,3.188,2.929c4.285-19.673,13.984-23.764,13.984-23.764
			l-2.188-2.859C395.342,244.334,387.023,251.729,384.355,265.168z"/>
		<g>
			<path style="fill:#2C2A40;" d="M374.242,187.558c0,0,0.28,7.808-8.719,9.41C365.523,196.967,367.774,186.75,374.242,187.558z"/>
			<path style="fill:#E03641;" d="M359.49,170.822c5.436,8.737,14.221,16.089,14.221,16.089s18.751-9.055,12.588-23.931
				c-1.655-3.994-3.684-6.91-5.886-9.009v-0.003h-0.003c-9.378-8.955-21.877-3.169-21.877-3.169
				C353.076,156.453,355.275,164.053,359.49,170.822z"/>
			<polygon style="fill:#3E86AA;" points="380.411,153.968 380.413,153.971 380.413,153.968 			"/>
			<path style="opacity:0.2;fill:#2C2A40;" d="M359.49,170.822c5.436,8.737,14.221,16.089,14.221,16.089s18.751-9.055,12.588-23.931
				c-1.655-3.994-3.684-6.91-5.886-9.009c0.108,0.173,5.279,8.454-0.003,13.965C375.072,173.507,365.826,175.503,359.49,170.822z"/>
			<path style="fill:#2C2A40;" d="M373.609,166.853c0,0-4.901-25.354-20.587-24.203c-14.687,1.078-3.243,20.515-3.243,20.515
				S370.98,169.219,373.609,166.853z"/>
			<path style="fill:#2C2A40;" d="M354.221,157.884c0,0-6.728,1.34-6.099,7.538C348.122,165.422,353.821,162.044,354.221,157.884z"
				/>
			<g>
				<g>
					<path style="fill:#F9B587;" d="M365.956,195.425l-2.466,8.775c-0.255,1.195-1.182,2.14-2.375,2.403
						c-10.297,2.265-15.202-5.286-14.166-7.933c1.332-0.473,24.254-7.807,28.424-16.616
						C375.373,182.055,373.912,189.927,365.956,195.425z"/>
					<path style="fill:#F9B587;" d="M348.126,195.044c3.296,1.269,7.939,2.42,12.774,1.563c9.12-1.62,13.868-12.413,13.868-12.413
						s1.523-7.333-0.525-14.108c-0.553-1.838-1.372-3.638-2.555-5.236c-4.29-5.799-11.421-6.834-15.345-7.209
						c-1.951-0.186-3.838,0.749-4.862,2.42l-1.719,2.814l-1.148,1.876c-0.248,0.404-0.469,0.817-0.668,1.24
						c-0.671,1.426-1.078,2.962-1.197,4.541l-0.135,1.838c-0.887,1.137-1.571,2.407-2.029,3.754
						c-0.401,1.164-0.636,2.388-0.69,3.633l-0.356,8.279C343.407,191.112,345.25,193.937,348.126,195.044z"/>
					<path style="fill:#2C2A40;" d="M357.558,167.51c0,0,7.297-2.758,8.855,3.28l-1.14,0.872c0,0-2.206-4.654-8.01-2.578
						L357.558,167.51z"/>
					<path style="fill:#F39568;" d="M346.614,172.37c-0.886,1.137-1.571,2.405-2.03,3.753c1.437-0.299,3.929,0.015,8.11,2.559
						c0,0-1.539-2.978-3.9-4.06c-0.634-0.291-0.807-1.111-0.343-1.632l3.106-3.489c0,0-0.123-1.021-1.002-1.769
						c-0.536-0.456-1.66-1.214-2.611-1.741c-0.671,1.423-1.077,2.961-1.195,4.541L346.614,172.37z"/>
					<path style="fill:#2C2A40;" d="M348.705,164.864c1.676,0.867,2.847,1.965,2.847,1.965l-0.421,1.396
						c-1.048-0.953-2.072-1.567-3.032-1.947c-0.475-0.188-0.706-0.707-0.501-1.113c0.003-0.005,0.005-0.01,0.007-0.015
						C347.794,164.776,348.287,164.648,348.705,164.864z"/>
					<path style="fill:#FFFFFF;" d="M345.878,179.6l12.655,4.158c0,0-4.26,5.95-10.65,2.96
						C342.872,184.372,345.878,179.6,345.878,179.6z"/>
					<path style="fill:#F39568;" d="M348.941,195.142c0,0,7.945,2.353,16.581-6.37c0,0,0.188,4.687-4.445,9.283
						c-3.371,3.346-9.74,2.792-12.957,2.242c-0.969-0.165-1.476-1.245-0.978-2.092L348.941,195.142z"/>
					<path style="fill:#F9B587;" d="M372.417,181.05c0,0,4.196-3.365,6.68,0.057c2.484,3.422-3.729,12.569-7.762,8.585
						C367.301,185.707,372.417,181.05,372.417,181.05z"/>
				</g>
				<path style="fill:#2C2A40;" d="M357.386,172.017c0,0,1.658-1.857,3.604-1.019c2.837,1.222,2.335,3.855,2.335,3.855
					S362.228,169.87,357.386,172.017z"/>
				<path style="fill:#2C2A40;" d="M350.351,170.746c0,0-0.936-3.174-3.325-0.862C347.026,169.884,349.12,168.653,350.351,170.746z"
					/>
				<path style="fill:#F39568;" d="M349.669,162.828c0.005,0.094-0.217,0.447-0.211,0.544c0,0,4.096-3.428,11.307-0.645
					c7.209,2.784,10.744,9.61,10.744,9.61l2.733-2.25c-0.553-1.838-1.372-3.638-2.555-5.236c-4.29-5.799-11.421-6.834-15.345-7.209
					c-1.951-0.186-3.838,0.749-4.862,2.42L349.669,162.828z"/>
			</g>
			<path style="fill:#2C2A40;" d="M370.221,181.591l2.369,1.078l3.455-3.099c0.544-2.978-1.87-10.928-2.436-12.717
				c-0.304-0.291-0.804-0.577-1.157-0.862c0,0-2.378,8.225,0.195,11.27L370.221,181.591z"/>
		</g>
		<path style="fill:#F39568;" d="M307.633,131.539l0.024,0.108c0,0,0.267,3.207,1.143,7.443l12.181-4.996l-2.412-5.506
			L307.633,131.539z"/>
		<path style="opacity:0.2;fill:#2C2A40;" d="M325.506,215.022l9.642,8.609c0,0-3.449,13.529-10.828,10.51
			C315.427,230.504,325.506,215.022,325.506,215.022z"/>
		<g>
			<g>
				
					<rect x="287.982" y="103.249" transform="matrix(-0.9368 0.3498 -0.3498 -0.9368 643.5565 120.6132)" style="fill:#2C2A40;" width="45.811" height="30.334"/>
				<polygon style="fill:#2C2A40;" points="284.124,112.218 294.734,140.636 337.651,124.613 336.035,124.155 285.343,109.758 
					284.521,111.415 284.522,111.417 				"/>
				<path style="fill:#FFFFFF;" d="M284.521,111.415l10.132,27.248c0.589-0.22,0.329-0.123,1.3-0.485l15.406-21.822l-26.016-6.597
					L284.521,111.415z"/>
				
					<rect x="289.265" y="101.139" transform="matrix(-0.9368 0.3498 -0.3498 -0.9368 643.3636 116.4298)" style="fill:#2C2A40;" width="43.809" height="30.334"/>
			</g>
			<path style="fill:#F9B587;" d="M299.222,102.224c0.003-0.004,0.006-0.006,0.006-0.006c0.494-0.581,1.395-0.979,1.954-0.944
				c0.123-0.565,0.782-0.981,1.524-1.133c0.432-0.089,0.879-0.007,1.271,0.193c0.338-0.651,1.189-1.038,1.652-0.78
				c0,0,0.114,0.048,0.305,0.137c0.158-0.485,0.522-0.736,0.522-0.736l0.002,0.001c0.478-0.674,1.843-1.03,2.364-0.741
				c0,0,4.543,1.834,4.976,5.336c0.433,3.502,1.075,7.58-0.548,6.998c-0.465-0.166-0.923-0.747-1.328-1.534
				c0.175,2.103,0.073,3.674-0.977,3.298c-0.584-0.209-1.157-1.071-1.627-2.177c0.101,1.783-0.076,3.022-1.02,2.684
				c-0.852-0.305-1.681-2-2.202-3.818c0.158,2.029,0.036,3.518-0.989,3.151c-1.256-0.45-1.615-3.27-2.493-5.551
				c-1.031-2.672-1.268-1.274-2.781-2.252l-1.359,0.507C298.193,103.299,299.136,102.31,299.222,102.224z"/>
		</g>
		<path style="fill:#F9B587;" d="M439.892,231.53c-1.91-1.187-3.293-3.051-3.891-5.218c-0.172-0.623-0.374-1.284-0.605-1.933
			c-0.898-2.515-0.18-7.905,0-10.061c0.18-2.156,1.707-6.288,2.156-6.737c0.449-0.449,3.144,1.466,2.066,4.236
			c-1.078,2.77-0.303,5.849,0.253,6.735c0.556,0.886,3.071-0.731,3.7-2.348c0.629-1.617,6.108-13.834,7.186-14.193
			c1.078-0.359,1.976-0.09,1.258,3.054c-0.719,3.144-4.132,8.624-3.683,10.151c0.449,1.527,1.258,0.27,1.527-0.539
			c0.269-0.809,4.671-12.372,5.39-12.788c0.719-0.417,2.785-1.137,1.707,3.76c-1.078,4.897-4.424,10.87-4.222,11.948
			c0.202,1.078,4.784-10.847,6.064-11.521c1.28-0.674,2.223,0.539,1.213,3.503s-3.71,8.712-3.936,9.361
			c-0.191,0.548-0.084,1.008,0.387,0.739c0.472-0.27,3.322-7.27,3.974-7.674c0.652-0.404,2.269,0.337,0.517,5.12
			c-1.752,4.783-2.919,9.022-7.681,13.423c-2.939,2.717-4.379,4.363-7.141,3.959C444.475,234.265,441.958,232.814,439.892,231.53z"
			/>
		<path style="fill:#2C2A40;" d="M380.413,218.079c0,0,1.174-12.952-8.997-15.647c-7.292-1.932-19.65,11.503-22.778,26.59
			c-5.531,26.68,7.289,49.946,15.672,53c0,0,7.652-5.929,1.819-13.924c0,0-15.779-15.907-8.744-38.807
			c5.859-19.074,15.218-23.985,18.738-14.623L380.413,218.079z"/>
		<path style="fill:#2C2A40;" d="M315.403,233.245l4.359-13.408c0,0-0.606-23.423,24.105-29.328
			c-0.251-0.784-0.367-1.62-0.329-2.474l0.154-3.571C340.6,184.666,309.099,193.772,315.403,233.245z"/>
		<path style="fill:#F39568;" d="M414.015,260.552c-0.473-4.212,0-7.815,0-7.815c-0.636-0.693-1.372-1.369-2.164-2.021
			C410.782,258.98,414.015,260.552,414.015,260.552z"/>
		<path style="fill:#F39568;" d="M314.47,154.071c0.453,0.655,0.935,1.269,1.45,1.83c0,0,4.158-2.425,5.358-3.056
			C321.278,152.845,317.44,152.912,314.47,154.071z"/>
		<g>
			<path style="fill:#B0B1CA;" d="M381.048,347.28c2.231,2.107,4.037,7.036,5.209,11.03c0.003,0.005,0.003,0.011,0.005,0.016
				c0.951,3.239,1.482,5.861,1.482,5.861c1.983,2.156,6.508,1.536,13.782,2.326c6.546,0.711,11.133,5.263,16.013,7.222
				c0.003,0,0.003,0,0.005,0c0.542,0.221,1.086,0.404,1.636,0.55c2.902,0.763,4.948,0.286,6.061-1.118
				c1.008-1.269,1.253-3.301,0.676-5.864c-1.213-5.401-14.822-17.258-18.73-18.837c-3.908-1.582-6.333-2.504-10.976-6.325
				c-4.641-3.821-9.37-4.083-10.314-2.652c-0.159,0.24-0.399,0.62-0.693,1.083C383.756,342.876,381.048,347.28,381.048,347.28z"/>
			<path style="fill:#2C2A40;" d="M385.206,340.572c1.539-0.17,4.142-0.248,5.993,0.827c2.784,1.617,6.737,5.39,10.958,7.365
				c4.223,1.978,12.308,7.546,16.53,11.499c4.22,3.953,6.705,10.173,5.479,12.216c-1.226,2.045-3.46,1.973-6.621,1.256
				c0.542,0.221,1.086,0.404,1.636,0.55c5.524,1.45,7.95-1.582,6.737-6.983c-1.213-5.401-14.822-17.258-18.73-18.837
				c-3.908-1.582-6.333-2.504-10.976-6.325c-4.641-3.821-9.37-4.083-10.314-2.652C385.74,339.729,385.5,340.108,385.206,340.572z"/>
			<path style="opacity:0.2;fill:#2C2A40;" d="M386.263,358.326c0.951,3.239,1.482,5.861,1.482,5.861
				c1.983,2.156,6.508,1.536,13.782,2.326c6.546,0.711,11.133,5.263,16.013,7.222c0.003,0,0.003,0,0.005,0
				c0.542,0.221,1.086,0.404,1.636,0.55c2.902,0.763,4.948,0.286,6.061-1.118l0.361-2.124c0,0-4.851,2.425-10.419-0.809
				c-4.263-2.474-6.186-4.886-9.609-5.84c0.636-2.589-0.813-5.39-0.813-5.39c-0.27,2.876-1.062,4.945-1.062,4.945
				c-0.676-0.097-1.393-0.132-2.172-0.094C395.97,364.126,387.292,361.449,386.263,358.326z"/>
		</g>
	</g>
	<g>
		<g>
			<path style="fill:#B0B1CA;" d="M61.262,306.94c1.698-0.096,3.099-0.962,4.302-2.221c0.037-0.038,0.077-0.079,0.114-0.119
				c0.002,0,0.002-0.003,0.005-0.003c2.095-2.255,3.603-5.689,5.089-8.273c0.434-0.76,0.871-1.447,1.317-2.01
				c1.403-1.766,3.853-6.424,5.985-10.715c0.109-0.216,0.215-0.435,0.322-0.649c2.074-4.196,3.769-7.87,3.769-7.87
				s-0.786-2.302-2.044-4.666c-0.386-0.725-0.817-1.457-1.285-2.132c-0.935-1.353-2.015-2.467-3.167-2.821
				c-3.594-1.107-6.923,1.277-9.688,4.495c-2.707,3.151-10.156,16.442-11.37,21.96c-0.026,0.117-0.05,0.232-0.069,0.344
				C53.279,299.196,55.645,307.263,61.262,306.94z"/>
			<path style="fill:#2C2A40;" d="M61.262,306.94c1.752-0.1,3.187-1.016,4.416-2.34c-3.91,1.873-6.292,0.74-7.663-0.811
				c-1.714-1.939-2.359-7.26-1.911-9.508c1.09-5.473,5.14-14.054,7.2-17.469c2.06-3.415,6.146-9.053,10.116-9.604
				c2.273-0.315,4.192,0.402,5.417,1.074c-0.935-1.353-2.015-2.467-3.167-2.821c-3.594-1.107-6.923,1.277-9.688,4.495
				c-2.765,3.218-10.477,17.015-11.44,22.303C53.279,299.196,55.645,307.263,61.262,306.94z"/>
			<path style="opacity:0.2;fill:#2C2A40;" d="M61.262,306.94c1.698-0.096,3.099-0.962,4.302-2.221
				c0.037-0.038,0.077-0.079,0.114-0.119c0.002,0,0.002-0.003,0.005-0.003c2.095-2.255,3.603-5.689,5.089-8.273
				c0.434-0.76,0.871-1.447,1.317-2.01c1.403-1.766,3.853-6.424,5.985-10.715c0.109-0.216,0.215-0.435,0.322-0.649
				c-0.672-0.789-1.558-1.133-2.716-0.809c0,0-2.787,2.57-5.422,7.857c-2.895,5.81-4.417,11.326-9.836,11.374
				c-5.419,0.05-4.443-3.509-5.167-8.634c-0.102-0.714-0.328-0.948-0.644-0.821c-0.026,0.117-0.05,0.232-0.069,0.344
				C53.279,299.196,55.645,307.263,61.262,306.94z"/>
		</g>
		<g>
			<path style="fill:#B0B1CA;" d="M150.954,355.564c0.06,3.004,2.421,22.883,8.901,26.904c3.273,2.031,5.152,1.951,6.093,0.433
				c0.541-0.866,0.776-2.2,0.789-3.876c0.012-1.199-0.09-2.576-0.274-4.078c-0.888-7.289-0.996-24.161,5.413-27.824
				c0,0-1.174-8.706-4.173-14.07c-0.9-1.617-1.969-2.93-3.222-3.609c0,0-4.473,0.026-7.288,0.407
				c-1.216,0.165-2.855,0.111-4.39,0.528c-2.017,0.551-3.856,1.912-4.333,5.649C147.631,342.611,150.892,352.56,150.954,355.564z"/>
			<path style="fill:#2C2A40;" d="M150.954,355.564c0.06,3.004,2.421,22.883,8.901,26.904c3.273,2.031,5.152,1.951,6.093,0.433
				c-1.654,0.07-3.94-0.479-5.989-2.239c-2.816-2.419-6.357-16.066-6.149-20.469c0.21-4.404-1.608-12.414-3.202-18.561
				c-1.208-4.652,1.037-9.28,2.196-11.253c-2.017,0.551-3.856,1.912-4.333,5.649C147.631,342.611,150.892,352.56,150.954,355.564z"
				/>
			<path style="opacity:0.2;fill:#2C2A40;" d="M150.954,355.564c0.06,3.004,2.421,22.883,8.901,26.904
				c3.273,2.031,5.152,1.951,6.093,0.433c0.541-0.866,0.776-2.2,0.789-3.876c-1.238,0.277-3.096-0.191-5.254-1.404
				c-3.797-2.134-4.554-13.778-4.009-21.466c0.545-7.688-4.049-13.733-1.408-18.572c2.642-4.839,11.374-3.745,11.374-3.745
				c0.105-0.269,0.193-0.529,0.262-0.785c-0.9-1.617-1.969-2.93-3.222-3.609c0,0-4.473,0.026-7.288,0.407
				c-1.216,0.165-2.855,0.111-4.39,0.528c-2.017,0.551-3.856,1.912-4.333,5.649C147.631,342.611,150.892,352.56,150.954,355.564z"/>
		</g>
		<path style="fill:#2C2A40;" d="M151.516,144.905c0,0-39.014,1.057-46.458,19.029c-7.443,17.972,16.015,69.438,28.65,75.615
			c12.636,6.176,30.462-1.365,36.501-7.736C176.248,225.442,166.204,150.328,151.516,144.905z"/>
		<g>
			<g>
				<path style="fill:#F9B587;" d="M127.159,192.79c0,0-0.059,7.256-3.03,15.151c0,0-0.874,5.265-2.234,11.793
					c0,0-0.001,0.002,0,0.003c-1.601,7.687-3.158,13.341-5.463,18.015c-1.942,3.934-3.348,7.707-4.306,10.652
					c-0.117,0.358-0.226,0.703-0.328,1.033l-0.002,0.002c-0.914,2.945-1.32,4.831-1.32,4.831l-8.558-2.852
					c0,0-0.533-9.016-0.377-13.927c0.191-6.086-0.445-17.982,3.446-27.835c0,0,0,0-0.002-0.002c0.311-0.785,0.647-1.505,1.011-2.146
					c0,0,1.096-9.714,2.679-16.13c0.526-2.126,1.104-3.889,1.715-4.817C110.392,186.561,123.065,185.235,127.159,192.79z"/>
				<path style="fill:#F39568;" d="M111.53,208.391c0,0-4.981,0.052-6.54,1.264c0,0,0,0-0.002-0.002
					c0.311-0.785,0.647-1.505,1.011-2.146C105.999,207.508,109.826,207.282,111.53,208.391z"/>
				<path style="fill:#F39568;" d="M127.159,192.79c0,0-0.059,7.256-3.03,15.151c0,0-0.874,5.265-2.234,11.793
					c0.525-4.913,0.157-13.73,0.259-20.163c0.069-4.392-3.884-5.422-7.339-6.662c-1.438-0.516-4.26-1.051-5.926-1.6
					c-0.072-0.024-0.142,0.047-0.211,0.068c0.526-2.126,1.104-3.889,1.715-4.817C110.392,186.561,123.065,185.235,127.159,192.79z"
					/>
			</g>
			<path style="fill:#F9B587;" d="M109.213,247.605l8.199,5.814c0.868,0.616,1.391,1.607,1.41,2.671l0.134,7.899
				c0.016,0.941-0.735,1.716-1.676,1.73l0,0c-0.788,0.012-1.481-0.519-1.675-1.283l-1.89-7.444l-1.935-0.707l1.214,4.444l1.494,4.03
				l3.738,4.676c0.544,0.68,0.408,1.676-0.297,2.187l0,0c-0.616,0.445-1.465,0.37-1.992-0.178l-4.925-5.117l-3.295-4.044
				l2.595,5.078l5.002,7.469c0.331,0.494,0.329,1.14-0.004,1.633l0,0c-0.514,0.758-1.59,0.862-2.24,0.217l-5.42-5.389l-3.082-4.804
				l2.708,8.474l2.399,5.421c0.265,0.599,0.049,1.301-0.507,1.648l0,0c-0.618,0.385-1.43,0.194-1.813-0.424l-3.482-5.631
				l-2.514-6.532l1.62,5.625l0.891,1.918c0.186,0.4,0.012,0.875-0.388,1.06l0,0c-0.347,0.161-0.759,0.054-0.983-0.256l-1.328-1.835
				l-1.974-4.657l2.763-19.96C101.959,251.335,103.108,248.598,109.213,247.605z"/>
			<path style="fill:#F39568;" d="M111.798,249.439c0,0-2.525-1.507-5.501-1.128c0,0,3.198-1.207,5.83,0.093L111.798,249.439z"/>
		</g>
		<g>
			<path style="fill:#F9B587;" d="M189.928,129.724c8.726-17.208,5.176-39.809,4.557-45.524c-0.054-0.501-0.274-1.197-0.636-2.05
				c0-0.003,0-0.003,0-0.003c-3.308-7.86-18.289-29.055-21.7-33.842c-0.231-0.325-0.41-0.573-0.529-0.736
				c-0.107-0.153-0.165-0.232-0.165-0.232l-10.51,4.895c0,0,7.066,7.388,9.843,16.663c2.777,9.275,9.425,21.43,9.425,21.43
				c-2.926,10.757-3.147,24.833-3.147,24.833C182.148,127.086,189.928,129.724,189.928,129.724z"/>
			<path style="fill:#F39568;" d="M189.928,129.724c8.726-17.208,5.176-39.809,4.557-45.524c-0.054-0.501-0.274-1.197-0.636-2.05
				c-0.005,0.284-0.258,18.481-1.442,24.36c-1.195,5.925-3.1,12.146-6.555,12.979c-3.458,0.833-6.914-1.13-8.785-4.332
				C182.148,127.086,189.928,129.724,189.928,129.724z"/>
			<g>
				<path style="fill:#F9B587;" d="M171.425,48.18c-1.406,1.491-7.513,5.631-8.403,6.028c-0.311,0.138-0.731-0.059-1.143-0.375
					c-0.409,0.01-3.094,0.053-4.55-0.65c-0.8-0.387-0.76-1.531-0.52-2.739c-1.933-0.518-5.647-3.581-5.524-6.404
					c0.134-3.076,3.445-3.221,3.445-3.221c0.145-3.532,3.493-2.878,3.493-2.878c0.21-1.534,3.019-2.148,3.019-2.148
					c0.318-1.304,2.147-1.486,3.217-0.946c1.07,0.54,7.323,8.166,7.574,9.541C172.283,45.764,171.425,48.18,171.425,48.18z"/>
				<path style="fill:#F39568;" d="M161.839,48.867c0.423,1.778-1.069,1.969-1.069,1.969c0.307-0.223,0.303-0.978,0.235-1.629
					c0,0,0-0.443-0.151-0.976c-0.002-0.002-0.002-0.002-0.002-0.005c-0.166-0.581-0.516-1.27-1.248-1.621
					c-1.319-0.628-1.933-0.238-1.933-0.238l-2.559-3.656c1.347,0.859,3.122,2.872,3.122,2.872c2.357-0.037,3.194,1.72,3.475,2.678
					c0.464-0.025,0.981-0.213,1.182-0.851c0.401-1.274-0.42-2.533-0.42-2.533l-3.555-4.979c0,0,4.898,4.798,4.967,6.625
					C163.972,48.947,161.839,48.867,161.839,48.867z"/>
				<path style="fill:#F39568;" d="M162.63,38.451c0,0,3.182,3.998,3.59,5.079c0.445,1.18-0.325,2.33-1.186,2.536
					c-0.861,0.207-1.337-0.242-1.337-0.242l-0.028,1.234c0,0,3.302,0.596,3.347-2.551C167.039,42.935,162.63,38.451,162.63,38.451z"
					/>
				<path style="fill:#F39568;" d="M166.825,43.776c0,0,0.784,0.787,1.76,0.498c0.977-0.289,1.193-0.94,0.979-1.544
					c0,0,0.574,0.593,0.05,1.427c-0.683,1.085-2.307,0.846-2.817,0.699L166.825,43.776z"/>
			</g>
			<path style="fill:#F39568;" d="M170.165,49.61c0,0,1.199-0.217,1.983-1.306c-0.231-0.325-0.41-0.573-0.529-0.736
				C171.619,47.568,171.142,48.611,170.165,49.61z"/>
			<path style="fill:#F39568;" d="M162.681,54.243c0,0,1.537-0.13,2.409-0.679c0,0-0.811,1.06-1.903,1.314L162.681,54.243z"/>
			<path style="fill:#F39568;" d="M180.212,90.324c0,0,4.6-0.699,6.166-2.005c0,0-1.677,3.955-6.693,4.102L180.212,90.324z"/>
		</g>
		<path style="fill:#2C2A40;" d="M74.808,289.197c1.854,1.379,1.001,1.694,2.831,2.684c1.773,0.959,6.426,4.771,6.715,5.007
			c0.008,0.007,0.013,0.012,0.013,0.012c12.166,12.918,32.674,33.02,43.786,34.547c10.476,1.44,26.088-27.944,36.061-49.514
			c0,0,0,0,0.002-0.003c0.106-0.158,4.172-6.153,10.245-4.387c6.153,1.79,28.826,23.073,39.263,28.457
			c0,0-13.986,0.716-18.556,6.579c-4.57,5.862-17.308,11.466-19.62,12.393c-2.311,0.927-3.518-0.109-5.667,1.307
			c-2.149,1.417-5.401,3.167-5.401,3.167c-0.087,6.529,2.348,12.182,7.115,17.851c0,0,1.986-1.073,3.892-1.636
			c2.648-0.783,8.228-2.253,9.218-4.083c0.99-1.83,35.458-9.081,35.458-9.081s26.479-5.249,28.535-17.815
			c2.056-12.566-51.708-69.037-51.708-69.037l-4.16-18.11l-19.408,3.211l-0.001-0.008l-35.423,2.685c0,0-6.057,16.284-7.765,30.969
			c-1.143,9.83-7.646,33.183-7.646,33.183s-5.993-6.161-17.653-11.149c-2.98-1.276-6.051-2.668-8.973-4.031l0.002-0.003
			c0,0-4.42-2.22-5.962-4.359c-1.541-2.14-2.481-1.316-4.149-1.817c-1.668-0.5-3.075-2.525-4.187-2.315
			c-1.112,0.21-1.442,0.756-1.442,0.756c-2.837,2.673-4.12,4.429-6.006,10.965C74.219,285.621,72.954,287.818,74.808,289.197z"/>
		<g>
			<path style="fill:#5B5B6C;" d="M106.495,292.879l-0.404,0.632c0.826,0.529,1.715,1.15,2.643,1.847l0.45-0.6
				C108.241,294.049,107.336,293.417,106.495,292.879z"/>
			<path style="fill:#5B5B6C;" d="M101.629,290.246l-0.351,0.663c0.8,0.423,1.571,0.816,2.292,1.168
				c0.2,0.098,0.402,0.201,0.605,0.308l0.351-0.663c-0.21-0.112-0.42-0.218-0.628-0.32
				C103.186,291.054,102.422,290.665,101.629,290.246z"/>
			<path style="fill:#5B5B6C;" d="M96.461,288.211c0.962,0.566,1.915,1.111,2.831,1.62l0.364-0.656
				c-0.911-0.506-1.858-1.048-2.815-1.611L96.461,288.211z"/>
			<path style="fill:#5B5B6C;" d="M110.498,296.733c0.781,0.63,1.593,1.31,2.484,2.08l0.491-0.567
				c-0.898-0.776-1.716-1.462-2.504-2.097L110.498,296.733z"/>
			<path style="fill:#5B5B6C;" d="M119.264,303.414l-0.495,0.564c1.075,0.944,1.784,1.514,2.299,1.847
				c0.118,0.076,0.238,0.143,0.357,0.199l0.318-0.679c-0.089-0.042-0.179-0.092-0.268-0.15
				C120.992,304.882,120.311,304.333,119.264,303.414z"/>
			<path style="fill:#5B5B6C;" d="M123.552,305.214l0.364,0.655c0.791-0.44,1.594-1.25,2.387-2.409l-0.619-0.424
				C124.958,304.099,124.241,304.831,123.552,305.214z"/>
			<path style="fill:#5B5B6C;" d="M115.169,299.737l-0.499,0.56c0.709,0.631,1.388,1.245,2.026,1.822l0.39,0.352l0.503-0.556
				l-0.39-0.353C116.559,300.984,115.879,300.37,115.169,299.737z"/>
			<path style="fill:#5B5B6C;" d="M91.757,285.326c0.891,0.57,1.822,1.151,2.767,1.726l0.39-0.641
				c-0.94-0.572-1.866-1.15-2.753-1.717L91.757,285.326z"/>
			<path style="fill:#5B5B6C;" d="M78.772,277.522c-0.19,0.222-0.377,0.447-0.559,0.677c0.586,0.081,1.445,0.22,2.381,0.439
				l0.171-0.73C80.017,277.732,79.325,277.608,78.772,277.522z"/>
			<path style="fill:#5B5B6C;" d="M82.969,278.556l-0.259,0.704c1.101,0.405,1.942,0.876,2.501,1.398
				c0.053,0.049,0.109,0.101,0.169,0.154l0.499-0.56c-0.055-0.049-0.107-0.096-0.156-0.142
				C85.091,279.519,84.165,278.996,82.969,278.556z"/>
			<path style="fill:#5B5B6C;" d="M87.621,281.622l-0.442,0.606c0.761,0.556,1.665,1.183,2.686,1.864l0.416-0.624
				C89.269,282.793,88.374,282.172,87.621,281.622z"/>
			<path style="fill:#5B5B6C;" d="M136.856,258.479l0.725,0.191c0.276-1.048,0.557-2.097,0.842-3.143l-0.724-0.197
				C137.414,256.378,137.132,257.429,136.856,258.479z"/>
			<path style="fill:#5B5B6C;" d="M138.299,253.156l0.722,0.201c0.294-1.053,0.59-2.098,0.887-3.129l-0.721-0.207
				C138.89,251.053,138.593,252.1,138.299,253.156z"/>
			<path style="fill:#5B5B6C;" d="M134.238,269.192l0.732,0.163c0.227-1.023,0.472-2.089,0.728-3.168l-0.73-0.173
				C134.712,267.097,134.466,268.166,134.238,269.192z"/>
			<path style="fill:#5B5B6C;" d="M135.497,263.821l0.729,0.179c0.251-1.023,0.517-2.084,0.791-3.154l-0.727-0.186
				C136.015,261.731,135.748,262.795,135.497,263.821z"/>
			<path style="fill:#5B5B6C;" d="M139.818,247.854l0.719,0.212c0.313-1.061,0.624-2.102,0.933-3.116l-0.717-0.218
				C140.444,245.747,140.132,246.791,139.818,247.854z"/>
			<path style="fill:#5B5B6C;" d="M126.809,301.14l0.665,0.347c0.463-0.888,0.92-1.896,1.357-2.996l-0.697-0.277
				C127.706,299.289,127.26,300.274,126.809,301.14z"/>
			<path style="fill:#5B5B6C;" d="M143.12,237.324l0.711,0.24c0.378-1.119,0.739-2.151,1.073-3.066l-0.705-0.257
				C143.863,235.163,143.5,236.2,143.12,237.324z"/>
			<path style="fill:#5B5B6C;" d="M141.418,242.575l0.716,0.224c0.334-1.071,0.667-2.113,0.988-3.098l-0.713-0.232
				C142.087,240.456,141.753,241.502,141.418,242.575z"/>
			<path style="fill:#5B5B6C;" d="M128.908,296.118l0.709,0.243c0.34-0.991,0.666-2.043,0.97-3.126l-0.722-0.202
				C129.565,294.102,129.243,295.14,128.908,296.118z"/>
			<path style="fill:#5B5B6C;" d="M133.12,274.6l0.737,0.139c0.187-0.996,0.401-2.068,0.636-3.185l-0.734-0.154
				C133.524,272.522,133.308,273.599,133.12,274.6z"/>
			<path style="fill:#5B5B6C;" d="M130.433,290.867l0.728,0.179c0.255-1.042,0.493-2.116,0.706-3.191l-0.736-0.146
				C130.92,288.774,130.685,289.836,130.433,290.867z"/>
			<path style="fill:#5B5B6C;" d="M131.534,285.505l0.74,0.124c0.18-1.075,0.339-2.164,0.47-3.234L132,282.303
				C131.869,283.363,131.712,284.44,131.534,285.505z"/>
			<path style="fill:#5B5B6C;" d="M132.251,280.066l0.745,0.089c0.115-0.958,0.272-2.036,0.467-3.205l-0.74-0.123
				C132.527,278.008,132.368,279.097,132.251,280.066z"/>
		</g>
		<g>
			<path style="fill:#5B5B6C;" d="M178.052,273.847c-1.115-0.028-2.237,0.129-3.325,0.464l0.221,0.717
				c1.009-0.312,2.05-0.458,3.084-0.431L178.052,273.847z"/>
			<path style="fill:#5B5B6C;" d="M183.086,276.071l0.37-0.652c-0.298-0.169-0.583-0.318-0.845-0.442
				c-0.745-0.351-1.503-0.625-2.253-0.812l-0.182,0.728c0.703,0.176,1.415,0.432,2.115,0.763
				C182.536,275.771,182.804,275.911,183.086,276.071z"/>
			<path style="fill:#5B5B6C;" d="M185.031,324.028l0.334,0.672c0.978-0.486,1.956-0.986,2.907-1.485l-0.348-0.664
				C186.977,323.047,186.004,323.544,185.031,324.028z"/>
			<path style="fill:#5B5B6C;" d="M189.906,321.491l0.359,0.658c1.011-0.552,1.968-1.092,2.844-1.606l-0.38-0.647
				C191.86,320.406,190.91,320.942,189.906,321.491z"/>
			<path style="fill:#5B5B6C;" d="M194.645,318.732l0.401,0.634c1.124-0.711,2.034-1.345,2.705-1.885l-0.47-0.585
				C196.632,317.419,195.745,318.037,194.645,318.732z"/>
			<path style="fill:#5B5B6C;" d="M166.272,333.498c0.675-0.468,1.333-0.901,1.964-1.292l-0.395-0.638
				c-0.556,0.345-1.135,0.725-1.725,1.128C166.166,332.964,166.219,333.231,166.272,333.498z"/>
			<path style="fill:#5B5B6C;" d="M169.815,330.43l0.351,0.663c1.084-0.573,2.066-0.994,2.919-1.251l-0.216-0.718
				C171.969,329.395,170.942,329.834,169.815,330.43z"/>
			<path style="fill:#5B5B6C;" d="M189.276,280.631c0.758,0.632,1.59,1.341,2.471,2.107l0.492-0.566
				c-0.885-0.77-1.72-1.482-2.483-2.117L189.276,280.631z"/>
			<path style="fill:#5B5B6C;" d="M175.006,328.473l0.252,0.707c0.864-0.307,1.889-0.713,3.048-1.205l-0.293-0.69
				C176.867,327.771,175.855,328.171,175.006,328.473z"/>
			<path style="fill:#5B5B6C;" d="M180.069,326.384l0.308,0.684c0.951-0.428,1.947-0.892,2.959-1.377l-0.324-0.676
				C182.005,325.497,181.015,325.958,180.069,326.384z"/>
			<path style="fill:#5B5B6C;" d="M172.144,276.369c0.245-0.163,0.515-0.328,0.808-0.489l-0.361-0.657
				c-0.528,0.291-0.986,0.593-1.366,0.874C171.53,276.189,171.836,276.281,172.144,276.369z"/>
			<path style="fill:#5B5B6C;" d="M185.382,276.654l-0.43,0.614c0.765,0.536,1.634,1.19,2.583,1.944l0.467-0.587
				C187.041,277.862,186.16,277.198,185.382,276.654z"/>
			<path style="fill:#5B5B6C;" d="M217.72,309.951c-0.359,0.267-1.215,0.583-2.615,0.964l0.197,0.724
				c1.534-0.418,2.417-0.753,2.866-1.086c0.092-0.068,0.182-0.141,0.27-0.218l-0.494-0.564
				C217.87,309.835,217.796,309.895,217.72,309.951z"/>
			<path style="fill:#5B5B6C;" d="M210.407,298.264l-0.469,0.585c1.004,0.806,1.862,1.452,2.623,1.975l0.425-0.618
				C212.239,299.693,211.396,299.058,210.407,298.264z"/>
			<path style="fill:#5B5B6C;" d="M214.889,301.344l-0.024-0.011l-0.322,0.677l0.025,0.012c1.056,0.495,1.948,1.046,2.652,1.637
				l0.482-0.575C216.949,302.452,216.002,301.866,214.889,301.344z"/>
			<path style="fill:#5B5B6C;" d="M219.258,304.868l-0.647,0.38c0.25,0.426,0.417,0.866,0.495,1.307
				c0.091,0.513,0.064,1.026-0.08,1.523l0.72,0.209c0.177-0.609,0.21-1.236,0.098-1.864
				C219.751,305.894,219.554,305.371,219.258,304.868z"/>
			<path style="fill:#5B5B6C;" d="M211.323,311.85c-0.507,0.12-1.029,0.244-1.559,0.371l0.175,0.729
				c0.529-0.127,1.05-0.251,1.556-0.371c0.556-0.132,1.095-0.26,1.61-0.384l-0.176-0.729
				C212.416,311.591,211.878,311.718,211.323,311.85z"/>
			<path style="fill:#5B5B6C;" d="M204.42,313.63l0.215,0.719c0.928-0.278,1.949-0.559,3.123-0.859l-0.186-0.727
				C206.389,313.065,205.358,313.349,204.42,313.63z"/>
			<path style="fill:#5B5B6C;" d="M199.219,315.623l0.348,0.665c0.804-0.42,1.795-0.84,2.945-1.249l-0.251-0.707
				C201.06,314.758,200.066,315.181,199.219,315.623z"/>
			<path style="fill:#5B5B6C;" d="M199.747,288.898c-0.57-0.518-1.142-1.037-1.713-1.555l-0.504,0.556
				c0.571,0.517,1.142,1.037,1.712,1.554l0.697,0.633l0.504-0.555L199.747,288.898z"/>
			<path style="fill:#5B5B6C;" d="M201.61,291.601c0.819,0.742,1.628,1.471,2.421,2.179l0.5-0.559
				c-0.792-0.707-1.6-1.436-2.418-2.176L201.61,291.601z"/>
			<path style="fill:#5B5B6C;" d="M208.674,296.835c-0.752-0.635-1.557-1.329-2.459-2.121l-0.495,0.564
				c0.906,0.796,1.714,1.493,2.471,2.131L208.674,296.835z"/>
			<path style="fill:#5B5B6C;" d="M196.363,285.832c-0.817-0.736-1.629-1.463-2.428-2.171l-0.497,0.561
				c0.798,0.707,1.608,1.432,2.424,2.167L196.363,285.832z"/>
		</g>
		<path style="fill:#84519E;" d="M200.02,244.37c0,0-35.5,11.56-54.67,6.38c-1.43-0.39-13.09-2.75-13.09-2.75s6.58-24.98,4.74-41.57
			c-0.48-4.4-1.52-13.08-4.63-20.96c-1.11-2.82-2.25-5.69-3.37-8.48c-3.33-8.26-6.43-15.79-7.8-19.09c2.85-1.97,5.18-2.48,5.72-2.58
			c0.08-0.01,0.11-0.01,0.11-0.01c3.15-0.53,7.17-1.36,11.46-2.65h0.01c5.52-1.68,11.49-4.12,16.66-7.68l4.8-2.67l5.04-2.81
			c0,0,6.2,2.24,12.64,11.44c-1.66,1.97-3.44,3.79-5.35,5.36c2.84,1.78,5.21,2.62,5.21,2.62c1.23-0.69,2.39-1.54,3.49-2.53
			c4.08,7.56,7.82,18.34,9.65,33.59c1.65,13.85,4.56,30.01,6.71,41.1C198.88,239.03,200.02,244.37,200.02,244.37z"/>
		<path style="fill:#2C2A40;" d="M148,158.5c-6.58-0.56-8.09-3.7-9.5-5.84c5.52-1.68,11.49-4.12,16.66-7.68l3.147-1.768
			c0.901,0,3.124,1.657,3.124,4.984C161.431,152.667,156.75,159.25,148,158.5z"/>
		<path style="opacity:0.2;fill:#2C2A40;" d="M169.053,168.015l11.547-5.17c0,0,8.976,13.486,1.658,16.125
			C174.394,181.807,169.053,168.015,169.053,168.015z"/>
		<path style="fill:#2C2A40;" d="M156.718,112.227c0,0,4.849-3.671,2.862-11.042c0,0-1.627,2.798-3.106,3.077
			c0,0,3.748-10.146-7.712-15.796c0,0,1.342,5.581-0.021,7.44c0,0-3.025-6.456-7.51-7.788c0,0,0.674,11.315-6.34,13.601
			c-5.003,1.631-11.47,7.442-13.254,16.994c0,0-2.905-0.839-3.989,0.302c0,0,3.725,0.628,4.239,3.003c0,0-1.564-0.792-2.742,0.208
			c0,0,2.632,0.544,3.039,2.602c0.407,2.058,10.371,17.796,16.38,20.418C144.572,147.868,156.718,112.227,156.718,112.227z"/>
		<g>
			<g>
				<path style="fill:#F9B587;" d="M141.172,147.634l0.801,4.616c0.204,1.173,1.071,2.128,2.223,2.428
					c9.941,2.59,14.323-3.587,14.817-5.979c-1.279-0.51-24.05-9.723-27.781-18.456C131.232,130.243,133.632,141.984,141.172,147.634
					z"/>
				<path style="fill:#F9B587;" d="M159.595,121.888c0.82,1.14,1.439,2.401,1.836,3.731c0.347,1.148,0.53,2.349,0.535,3.563
					l0.037,8.073c0.014,3.003-1.887,5.682-4.728,6.654c-3.256,1.114-7.819,2.06-12.493,1.044
					c-8.821-1.918-13.041-12.604-13.041-12.604s-3.675-11.078,3.723-18.718c5.125-5.293,12.002-6.332,15.744-6.47
					c1.604-0.06,3.108,0.777,3.893,2.178l2.834,5.059c0.225,0.401,0.426,0.812,0.604,1.232c0.6,1.411,0.938,2.924,0.994,4.466
					L159.595,121.888z"/>
				<path style="fill:#2C2A40;" d="M149.121,116.747c0,0-7.002-2.958-8.744,2.862l1.077,0.892c0,0,2.322-4.449,7.896-2.21
					L149.121,116.747z"/>
				<path style="fill:#F39568;" d="M159.595,121.888c0.82,1.14,1.439,2.401,1.836,3.731c-1.388-0.345-3.826-0.132-7.992,2.189
					c0,0,1.61-2.842,3.949-3.807c0.628-0.259,0.827-1.052,0.395-1.576l-2.894-3.514c0,0,0.158-0.99,1.042-1.685
					c0.539-0.424,1.662-1.12,2.607-1.597c0.6,1.411,0.938,2.924,0.994,4.466L159.595,121.888z"/>
				<path style="fill:#2C2A40;" d="M157.84,114.502c-1.664,0.782-2.846,1.807-2.846,1.807l0.358,1.375
					c1.056-0.889,2.076-1.449,3.025-1.783c0.469-0.165,0.714-0.662,0.529-1.065c-0.002-0.005-0.005-0.01-0.007-0.015
					C158.73,114.451,158.255,114.307,157.84,114.502z"/>
				<path style="fill:#FFFFFF;" d="M160.042,128.955l-12.477,3.575c0,0,3.925,5.953,10.259,3.28
					C162.79,133.715,160.042,128.955,160.042,128.955z"/>
				<path style="fill:#F39568;" d="M156.478,143.974c0,0-7.824,1.994-15.906-6.822c0,0-0.358,4.556,3.98,9.205
					c4.338,4.649,14.46,2.342,14.46,2.342L156.478,143.974z"/>
				<path style="fill:#F9B587;" d="M134.147,129.376c0,0-3.959-3.433-6.506-0.195c-2.547,3.238,3.161,12.378,7.237,8.649
					C138.954,134.101,134.147,129.376,134.147,129.376z"/>
			</g>
			<path style="fill:#2C2A40;" d="M149.12,121.142c0,0-1.545-1.87-3.471-1.127c-2.808,1.084-2.418,3.666-2.418,3.666
				S144.485,118.87,149.12,121.142z"/>
			<path style="fill:#2C2A40;" d="M156.017,120.168c0,0,1.03-3.056,3.27-0.715C159.287,119.453,157.294,118.175,156.017,120.168z"/>
		</g>
		<path style="fill:#2C2A40;" d="M132.617,116.939c0,0,3.036,3.671,0.569,7.504l2.555,5.876l-2.643,0.678l-2.197-3.259l-1.697-8.424
			C129.204,119.314,131.252,115.46,132.617,116.939z"/>
		<path style="fill:#84519E;" d="M196.82,122.75c0,0-0.32,1.6-0.98,4.14c-2.15,8.2-7.92,26.19-18.34,32.03c0,0-2.37-0.84-5.21-2.62
			c-4.39-2.75-9.89-7.72-9.39-15.24c0,0,8.94-14.85,12.73-25.3c0.35-0.95,0.65-1.87,0.9-2.74l16.62,7.97L196.82,122.75z"/>
		<path style="fill:#2C2A40;" d="M196.82,122.75c0,0-0.32,1.6-0.98,4.14c-3.9-3.02-16.29-9.2-20.21-11.13
			c0.35-0.95,0.65-1.87,0.9-2.74l16.62,7.97L196.82,122.75z"/>
		<path style="opacity:0.2;fill:#2C2A40;" d="M196.823,122.75c0,0-4.698,23.631-15.834,33.639c-1.102-2.044-2.228-3.852-3.35-5.45
			c8.472-10.095,13.662-24.297,15.507-29.95L196.823,122.75z"/>
		<path style="fill:#84519E;" d="M134.05,170.91c-0.31,1.96-0.69,3.3-0.69,3.3l-0.99,11.26l-1.12,10.84l-0.32,3.14
			c-1.89,2.65-8.29,2.89-14.34,2.45v-0.01c-6.35-0.46-12.32-1.68-12.32-1.68s0.16-1.22,0.52-3.31c0.86-5.04,2.89-15.16,6.71-25.54
			c2.68-7.26,6.51-11.27,9.7-13.46c2.85-1.97,5.18-2.48,5.72-2.58c0.08-0.01,0.11-0.01,0.11-0.01
			C135.25,156.08,134.87,165.7,134.05,170.91z"/>
		<path style="fill:#2C2A40;" d="M131.25,196.31l-0.32,3.14c-1.89,2.65-8.29,2.89-14.34,2.45v-0.01
			c-6.35-0.46-12.32-1.68-12.32-1.68s0.16-1.22,0.52-3.31c2.65,0.7,8.961,1.609,14.574,1.683
			C125.667,198.667,129.33,197.17,131.25,196.31z"/>
		<path style="fill:#2C2A40;" d="M156.571,144.19c0,0,12.98-1.984,21.223,5.354c8.245,7.335,16.432,22.726,11.448,31.961
			l2.019,13.376c0,0,13.575-21.324-0.991-41.983c-9.801-13.899-22.327-14.238-28.657-13.305c-0.69,1.98-2.243,3.472-4.303,4.184
			L156.571,144.19z"/>
		<path style="fill:#2C2A40;" d="M125.267,155.786c0,0,3.718-8.491,10.645-7.512c6.927,0.979,27.667,29.159,23.279,49.883
			c-4.389,20.724-22.317,22.928-22.317,22.928s-3.471-5.262,0.43-10.155c0,0,11.781-2.889,14.961-16.381
			c3.18-13.492-12.85-40.858-18.74-41.698c-2.12-0.302-3.715,1.952-3.715,1.952S127.317,155.482,125.267,155.786z"/>
		<path style="opacity:0.2;fill:#2C2A40;" d="M200.023,244.371c0,0-35.507,11.563-54.673,6.376
			c-1.43-0.386-13.094-2.744-13.094-2.744s6.587-24.988,4.749-41.577c-0.487-4.395-1.527-13.077-4.631-20.961l-1.443,13.988
			c-1.892,2.642-8.288,2.887-14.339,2.444l0-0.002c0,0,9.657-5.141,10.698-16.689c0.302-3.36,0.949-6.064,1.712-8.211
			c1.856-5.23,4.413-7.145,4.413-7.145s0.237,0.379,0.632,1.058c1.882,3.215,7.335,13.144,7.974,21.138
			c0.775,9.679,3.839,30.295,18.78,42.503c8.312,6.792,36.082,5.725,36.525-3.197c0.003-0.094,0.01-0.185,0.02-0.27
			C198.881,239.033,200.023,244.371,200.023,244.371z"/>
	</g>
</g>
<g id="DESIGNED_BY_FREEPIK">
	<g>
		<g id="XMLID_319_">
			<g id="XMLID_338_">
				<path id="XMLID_346_" style="fill:#112129;" d="M260.104,465.465c-0.432,0.443-0.803,0.931-1.108,1.453l-0.465-0.241
					c-0.067-0.298-0.349-0.503-0.659-0.466c-0.331,0.039-0.568,0.339-0.529,0.67c0.039,0.331,0.339,0.568,0.67,0.529
					c0.065-0.008,0.127-0.026,0.183-0.052l0.452,0.234c-0.251,0.554-0.433,1.139-0.539,1.744l0.747,0.132
					c0.23-1.306,0.85-2.507,1.792-3.473L260.104,465.465z"/>
				<path id="XMLID_345_" style="fill:#112129;" d="M265.592,463.163c-0.171,0-0.341,0.006-0.51,0.017l-0.074-0.626
					c0.188-0.149,0.296-0.389,0.266-0.645c-0.046-0.393-0.402-0.674-0.795-0.628c-0.393,0.046-0.674,0.402-0.628,0.795
					c0.03,0.254,0.189,0.461,0.405,0.564l0.073,0.624c-0.714,0.116-1.403,0.332-2.06,0.646l0.327,0.684
					c0.934-0.447,1.942-0.673,2.995-0.673c0.496,0,0.993,0.053,1.475,0.158l0.161-0.741
					C266.692,463.222,266.142,463.163,265.592,463.163z"/>
				<path id="XMLID_344_" style="fill:#112129;" d="M272.194,465.711c0.331-0.04,0.566-0.341,0.526-0.672
					c-0.04-0.331-0.341-0.566-0.672-0.526c-0.309,0.038-0.535,0.304-0.53,0.609l-0.416,0.363c-0.418-0.43-0.89-0.813-1.408-1.139
					l-0.404,0.641c1.134,0.715,2.021,1.726,2.563,2.925l0.691-0.313c-0.251-0.554-0.568-1.072-0.942-1.545l0.402-0.351
					C272.065,465.716,272.129,465.719,272.194,465.711z"/>
				<path id="XMLID_343_" style="fill:#112129;" d="M265.044,473.372c-0.386,0.023-0.775,0.035-1.157,0.035
					c-0.88,0-1.733-0.061-2.478-0.179c-0.39-0.062-0.846-0.155-1.27-0.292c1.046,1.861,3.069,3.125,5.388,3.125
					c2.855,0,5.262-1.916,5.95-4.504c-0.682,0.449-1.505,0.825-2.459,1.123C267.839,473.047,266.464,473.286,265.044,473.372z"/>
				<path id="XMLID_339_" style="fill:#112129;" d="M265.592,464.68c-3.352,0-6.08,2.666-6.08,5.943
					c0,0.426,0.046,0.849,0.137,1.261c0.673,0.483,2.706,0.89,5.348,0.731c2.879-0.173,5.297-0.957,6.672-2.159
					c-0.005-0.195-0.021-0.39-0.045-0.582C271.244,466.913,268.65,464.68,265.592,464.68z M263.432,471.194
					c-1.02,0-1.85-0.83-1.85-1.85c0-1.02,0.83-1.85,1.85-1.85c1.02,0,1.85,0.83,1.85,1.85
					C265.282,470.365,264.452,471.194,263.432,471.194z M268.17,470.286c-0.75,0-1.36-0.61-1.36-1.36s0.61-1.361,1.36-1.361
					c0.75,0,1.361,0.61,1.361,1.361S268.92,470.286,268.17,470.286z"/>
			</g>
			<path id="XMLID_336_" style="fill:#112129;" d="M281.595,466.547c-0.295-0.116-0.805-0.309-1.382-0.237
				c-0.551,0.069-0.844,0.341-0.844,1.007v0.866h2.228v1.717h-2.228v5.455h-1.932v-5.455h-1.34v-1.717h1.34v-0.888
				c0-1.68,0.896-2.783,2.568-2.783c0.643,0,1.157,0.122,1.59,0.308L281.595,466.547z"/>
			<path id="XMLID_334_" style="fill:#112129;" d="M286.298,469.879c-0.177-0.03-0.358-0.046-0.526-0.046
				c-0.896,0-1.51,0.548-1.51,1.614v3.908h-1.932v-7.172h1.873v0.785c0.451-0.673,1.14-0.977,2.021-0.977
				c0.414,0,0.848,0.128,1.094,0.337L286.298,469.879z"/>
			<path id="XMLID_331_" style="fill:#112129;" d="M293.965,471.757c0,0.222-0.015,0.489-0.037,0.651h-5.085
				c0.207,1.036,0.933,1.488,1.843,1.488c0.622,0,1.295-0.252,1.813-0.688l1.132,1.243c-0.814,0.748-1.85,1.088-3.057,1.088
				c-2.198,0-3.723-1.495-3.723-3.753c0-2.258,1.48-3.797,3.627-3.797C292.544,467.99,293.958,469.522,293.965,471.757z
				 M288.851,471.091h3.175c-0.177-0.918-0.733-1.436-1.562-1.436C289.554,469.655,289.021,470.203,288.851,471.091z"/>
			<path id="XMLID_328_" style="fill:#112129;" d="M301.618,471.757c0,0.222-0.015,0.489-0.037,0.651h-5.085
				c0.207,1.036,0.933,1.488,1.843,1.488c0.622,0,1.295-0.252,1.813-0.688l1.132,1.243c-0.814,0.748-1.85,1.088-3.057,1.088
				c-2.198,0-3.723-1.495-3.723-3.753c0-2.258,1.48-3.797,3.627-3.797C300.197,467.99,301.611,469.522,301.618,471.757z
				 M296.504,471.091h3.175c-0.178-0.918-0.733-1.436-1.562-1.436C297.207,469.655,296.674,470.203,296.504,471.091z"/>
			<path id="XMLID_325_" style="fill:#112129;" d="M309.964,471.764c0,2.154-1.495,3.775-3.471,3.775
				c-0.962,0-1.643-0.378-2.109-0.933v3.708h-1.924v-10.133h1.887v0.792c0.466-0.585,1.155-0.984,2.139-0.984
				C308.469,467.99,309.964,469.61,309.964,471.764z M304.287,471.764c0,1.132,0.747,1.976,1.843,1.976
				c1.14,0,1.85-0.881,1.85-1.976c0-1.095-0.71-1.976-1.85-1.976C305.035,469.788,304.287,470.632,304.287,471.764z"/>
			<path id="XMLID_322_" style="fill:#112129;" d="M313.068,465.836c0,0.696-0.54,1.229-1.236,1.229
				c-0.696,0-1.229-0.533-1.229-1.229c0-0.696,0.533-1.243,1.229-1.243C312.527,464.592,313.068,465.14,313.068,465.836z
				 M312.809,475.354h-1.932v-7.172h1.932V475.354z"/>
			<path id="XMLID_320_" style="fill:#112129;" d="M316.032,470.736l2.701-2.554h2.368l-3.479,3.375l3.501,3.797h-2.376
				l-2.716-2.901v2.901H314.1v-10.658h1.932V470.736z"/>
		</g>
		<g>
			<path style="fill:#112129;" d="M184.412,475.289v-1.055c-0.527,0.718-1.391,1.23-2.387,1.23c-1.846,0-3.149-1.406-3.149-3.706
				c0-2.256,1.289-3.721,3.149-3.721c0.952,0,1.816,0.469,2.387,1.245v-3.765h1.099v9.77H184.412z M184.412,473.37v-3.208
				c-0.395-0.615-1.245-1.143-2.124-1.143c-1.421,0-2.27,1.172-2.27,2.739c0,1.567,0.85,2.724,2.27,2.724
				C183.168,474.483,184.017,473.986,184.412,473.37z"/>
			<path style="fill:#112129;" d="M186.932,471.744c0-2.051,1.465-3.706,3.486-3.706c2.139,0,3.398,1.67,3.398,3.794v0.279h-5.727
				c0.088,1.333,1.025,2.446,2.549,2.446c0.805,0,1.626-0.322,2.182-0.894l0.527,0.718c-0.703,0.703-1.655,1.084-2.812,1.084
				C188.44,475.465,186.932,473.956,186.932,471.744z M190.403,468.947c-1.509,0-2.256,1.274-2.314,2.358h4.643
				C192.718,470.25,192.015,468.947,190.403,468.947z"/>
			<path style="fill:#112129;" d="M194.607,474.351l0.571-0.791c0.469,0.542,1.362,1.011,2.329,1.011c1.084,0,1.67-0.513,1.67-1.216
				c0-1.714-4.38-0.659-4.38-3.281c0-1.098,0.952-2.036,2.636-2.036c1.201,0,2.051,0.454,2.622,1.026l-0.513,0.762
				c-0.424-0.513-1.201-0.894-2.109-0.894c-0.967,0-1.567,0.483-1.567,1.113c0,1.552,4.38,0.527,4.38,3.281
				c0,1.187-0.952,2.138-2.783,2.138C196.306,475.465,195.325,475.113,194.607,474.351z"/>
			<path style="fill:#112129;" d="M201.477,466.471c0-0.41,0.337-0.747,0.732-0.747c0.41,0,0.747,0.337,0.747,0.747
				c0,0.41-0.337,0.732-0.747,0.732C201.814,467.203,201.477,466.881,201.477,466.471z M201.667,475.289v-7.075h1.099v7.075H201.667
				z"/>
			<path style="fill:#112129;" d="M204.582,477.105l0.556-0.82c0.586,0.703,1.289,0.967,2.3,0.967c1.172,0,2.27-0.571,2.27-2.124
				v-1.011c-0.513,0.718-1.377,1.26-2.373,1.26c-1.845,0-3.149-1.377-3.149-3.662c0-2.27,1.289-3.677,3.149-3.677
				c0.952,0,1.802,0.469,2.373,1.245v-1.069h1.098v6.87c0,2.344-1.641,3.076-3.369,3.076
				C206.237,478.16,205.417,477.926,204.582,477.105z M209.709,473.253v-3.091c-0.381-0.615-1.23-1.143-2.109-1.143
				c-1.421,0-2.27,1.128-2.27,2.695c0,1.553,0.849,2.695,2.27,2.695C208.478,474.41,209.328,473.868,209.709,473.253z"/>
			<path style="fill:#112129;" d="M217.413,475.289v-4.629c0-1.245-0.63-1.641-1.582-1.641c-0.865,0-1.685,0.527-2.095,1.099v5.17
				h-1.099v-7.075h1.099v1.025c0.498-0.586,1.465-1.201,2.519-1.201c1.48,0,2.256,0.747,2.256,2.285v4.966H217.413z"/>
			<path style="fill:#112129;" d="M219.932,471.744c0-2.051,1.465-3.706,3.486-3.706c2.139,0,3.398,1.67,3.398,3.794v0.279h-5.727
				c0.088,1.333,1.025,2.446,2.549,2.446c0.806,0,1.626-0.322,2.183-0.894l0.527,0.718c-0.703,0.703-1.655,1.084-2.812,1.084
				C221.441,475.465,219.932,473.956,219.932,471.744z M223.404,468.947c-1.509,0-2.256,1.274-2.314,2.358h4.643
				C225.718,470.25,225.015,468.947,223.404,468.947z"/>
			<path style="fill:#112129;" d="M233.35,475.289v-1.055c-0.527,0.718-1.392,1.23-2.388,1.23c-1.846,0-3.149-1.406-3.149-3.706
				c0-2.256,1.289-3.721,3.149-3.721c0.952,0,1.817,0.469,2.388,1.245v-3.765h1.098v9.77H233.35z M233.35,473.37v-3.208
				c-0.396-0.615-1.245-1.143-2.124-1.143c-1.421,0-2.27,1.172-2.27,2.739c0,1.567,0.849,2.724,2.27,2.724
				C232.105,474.483,232.954,473.986,233.35,473.37z"/>
			<path style="fill:#112129;" d="M239.692,475.289v-9.77h1.098v3.765c0.572-0.776,1.421-1.245,2.388-1.245
				c1.845,0,3.149,1.465,3.149,3.721c0,2.299-1.304,3.706-3.149,3.706c-0.996,0-1.86-0.513-2.388-1.23v1.055H239.692z
				 M242.9,474.483c1.436,0,2.285-1.157,2.285-2.724c0-1.568-0.85-2.739-2.285-2.739c-0.864,0-1.728,0.527-2.109,1.143v3.208
				C241.171,473.986,242.036,474.483,242.9,474.483z"/>
			<path style="fill:#112129;" d="M247.528,477.061c0.161,0.073,0.425,0.117,0.601,0.117c0.483,0,0.805-0.161,1.055-0.747
				l0.469-1.069l-2.959-7.148h1.187l2.358,5.8l2.344-5.8h1.201l-3.545,8.51c-0.425,1.025-1.143,1.421-2.08,1.435
				c-0.234,0-0.601-0.044-0.806-0.103L247.528,477.061z"/>
		</g>
	</g>
</g>
</svg>
